<!-- Generated by IcoMoon.io -->
<svg version="1.1" 
  xmlns="http://www.w3.org/2000/svg" 
  width="24" 
  height="24" 
  viewBox="0 0 24 24">
  <title>add-node</title>
  <path d="M2.4 3h19.2c1.325 0 2.4 1.075 2.4 2.4v12c0 1.325-1.075 2.4-2.4 2.4h-19.2c-1.325 0-2.4-1.075-2.4-2.4v-12c0-1.325 1.075-2.4 2.4-2.4zM13.2 10.2v-2.4c0-0.663-0.537-1.2-1.2-1.2s-1.2 0.537-1.2 1.2v2.4h-2.4c-0.663 0-1.2 0.537-1.2 1.2s0.537 1.2 1.2 1.2h2.4v2.4c0 0.663 0.537 1.2 1.2 1.2s1.2-0.537 1.2-1.2v-2.4h2.4c0.663 0 1.2-0.537 1.2-1.2s-0.537-1.2-1.2-1.2h-2.4z"></path>
</svg>