<svg xmlns="http://www.w3.org/2000/svg" 
  viewBox="0 0 24 24" 
  width="24" 
  height="24">
  <title>
    arrow-to-right
  </title>
  <path d="M10,6.352 L10,6.354 C10.453,5.885 11.186,5.885 11.64,6.354 L17.1,12.002 L11.64,17.65 C11.414,17.884 11.117,18.002 10.82,18.002 C10.523,18.002 10.226,17.884 10,17.65 C9.546,17.181 9.546,16.422 10,15.953 L12.66,13.201 L3.86,13.201 C3.22,13.201 2.7,12.663 2.7,12.001 C2.7,11.339 3.22,10.801 3.86,10.801 L12.66,10.801 L10,8.049 C9.546,7.58 9.546,6.821 10,6.352 Z M20.1,6 C20.7627417,6 21.3,6.5372583 21.3,7.2 L21.3,16.8 C21.3,17.4627417 20.7627417,18 20.1,18 C19.4372583,18 18.9,17.4627417 18.9,16.8 L18.9,7.2 C18.9,6.5372583 19.4372583,6 20.1,6 Z"/>
</svg>
