<!-- Generated by IcoMoon.io -->
<svg version="1.1" xmlns="http://www.w3.org/2000/svg" width="24" height="24" viewBox="0 0 24 24">
<title>calendar</title>
<path d="M0.857 4.794v16.812c0 1.323 1.072 2.394 2.394 2.394h16.812c1.323 0 2.394-1.072 2.394-2.394v-16.812c0-1.323-1.072-2.394-2.394-2.394h-16.812c-1.323 0-2.394 1.072-2.394 2.394zM3.257 7.2h16.8v14.4h-16.8v-14.4zM5.657 0h2.4v2.4h-2.4v-2.4zM15.257 0h2.4v2.4h-2.4v-2.4zM5.657 10.8h2.4v2.4h-2.4v-2.4zM5.657 15.6h2.4v2.4h-2.4v-2.4zM10.457 10.8h2.4v2.4h-2.4v-2.4zM10.457 15.6h2.4v2.4h-2.4v-2.4zM15.257 10.8h2.4v2.4h-2.4v-2.4zM15.257 15.6h2.4v2.4h-2.4v-2.4z"></path>
</svg>
