<!-- Generated by IcoMoon.io -->
<svg version="1.1" xmlns="http://www.w3.org/2000/svg" width="24" height="24" viewBox="0 0 24 24">
<title>cancel</title>
<path d="M12 1.8c-5.624 0-10.2 4.576-10.2 10.2s4.576 10.2 10.2 10.2c5.624 0 10.2-4.576 10.2-10.2s-4.576-10.2-10.2-10.2zM5.625 12.258c0-1.018 0.274-1.962 0.715-2.808l8.21 8.21c-0.845 0.44-1.79 0.715-2.808 0.715-3.373 0-6.117-2.744-6.117-6.117zM17.66 14.55l-8.21-8.21c0.845-0.44 1.79-0.715 2.808-0.715 3.373 0 6.117 2.744 6.117 6.117 0 1.018-0.274 1.962-0.715 2.808z"></path>
</svg>
