<svg version="1.1" xmlns="http://www.w3.org/2000/svg" width="24" height="24" viewBox="0 0 24 24">
<title>checkbox-indeterminate</title>
<path d="m18.2857143 4h-12.57142859c-.94642857 0-1.71428571.76785714-1.71428571 1.71428571v12.57142859c0 .9464286.76785714 1.7142857 1.71428571 1.7142857h12.57142859c.9464286 0 1.7142857-.7678571 1.7142857-1.7142857v-12.57142859c0-.94642857-.7678571-1.71428571-1.7142857-1.71428571zm-11.00000001 9.4285714c-.23571429 0-.42857143-.1928571-.42857143-.4285714v-2c0-.2357143.19285714-.4285714.42857143-.4285714h9.42857141c.2357143 0 .4285714.1928571.4285714.4285714v2c0 .2357143-.1928571.4285714-.4285714.4285714z"/>
</svg>
