<!-- Generated by IcoMoon.io -->
<svg version="1.1" xmlns="http://www.w3.org/2000/svg" width="24" height="24" viewBox="0 0 24 24">
<title>close</title>
<path d="M12 0c-6.628 0-12 5.373-12 12s5.372 12 12 12c6.629 0 12-5.373 12-12s-5.371-12-12-12zM17.561 15.439c0.587 0.587 0.587 1.534 0 2.121-0.293 0.293-0.677 0.439-1.061 0.439s-0.768-0.147-1.061-0.439l-3.44-3.44-3.44 3.44c-0.293 0.292-0.676 0.439-1.060 0.439s-0.768-0.147-1.060-0.439c-0.587-0.587-0.587-1.535 0-2.121l3.44-3.439-3.44-3.44c-0.587-0.587-0.587-1.534 0-2.121s1.534-0.587 2.121 0l3.44 3.439 3.44-3.439c0.587-0.587 1.534-0.587 2.121 0s0.587 1.534 0 2.121l-3.44 3.44 3.44 3.439z"></path>
</svg>
