<!-- Generated by IcoMoon.io -->
<svg version="1.1" xmlns="http://www.w3.org/2000/svg" width="24" height="24" viewBox="0 0 24 24">
<title>cloud</title>
<path d="M14.832 2.325l-1.099 3.296-1.099-3.296c-0.202-0.608 0.125-1.262 0.732-1.465 0.608-0.203 1.263 0.125 1.466 0.732 0.082 0.248 0.077 0.503 0 0.733zM20.726 5.676l-3.108 1.555 1.555-3.108c0.287-0.572 0.982-0.803 1.554-0.519 0.572 0.287 0.803 0.982 0.519 1.555-0.118 0.233-0.301 0.409-0.519 0.517zM22.523 12.213l-3.296-1.099 3.296-1.099c0.608-0.203 1.262 0.125 1.466 0.733 0.202 0.606-0.126 1.261-0.734 1.465-0.247 0.082-0.502 0.076-0.732 0zM8.295 4.122l1.555 3.108-3.108-1.555c-0.572-0.287-0.804-0.982-0.519-1.554 0.287-0.572 0.983-0.803 1.554-0.519 0.234 0.118 0.41 0.301 0.519 0.519zM18.432 12.589c0.153-0.466 0.246-0.957 0.246-1.474 0-2.726-2.218-4.944-4.944-4.944-1.472 0-2.787 0.653-3.688 1.679l-0.157-0.031c-1.951 0-3.702 0.857-4.91 2.209-0.264-0.088-0.519-0.094-0.766-0.012-0.608 0.203-0.936 0.858-0.734 1.465 0.063 0.183 0.174 0.329 0.304 0.452-0.311 0.766-0.487 1.602-0.487 2.479l0.002 0.138c-1.895 0.489-3.298 2.212-3.298 4.256 0 2.424 1.972 4.395 4.395 4.395h12.086c3.029 0 5.493-2.464 5.493-5.493 0-2.339-1.477-4.328-3.542-5.118zM13.734 8.368c1.515 0 2.747 1.232 2.747 2.747 0 0.402-0.105 0.776-0.261 1.12-0.389 0.023-0.791 0.081-1.228 0.207-0.572-1.487-1.762-2.653-3.26-3.192 0.501-0.538 1.211-0.881 2.003-0.881zM16.48 21.003h-12.086c-1.213 0-2.197-0.986-2.197-2.197s0.984-2.197 2.096-2.204l1.562 0.018-0.272-1.321c-0.060-0.289-0.090-0.589-0.090-0.888 0-2.424 1.972-4.395 4.395-4.395l0.076-0.015c2.092 0.060 3.84 1.545 4.227 3.593l0.042 0.204c0.135 0.479 0.568 0.776 1.039 0.782l0.318-0.025c0.343-0.099 0.625-0.144 0.891-0.144 1.817 0 3.296 1.479 3.296 3.296s-1.479 3.296-3.296 3.296z"></path>
</svg>
