<!-- Generated by IcoMoon.io -->
<svg version="1.1" xmlns="http://www.w3.org/2000/svg" width="24" height="24" viewBox="0 0 24 24">
<title>code</title>
<path d="M6.865 17.093c-0.283 0-0.569-0.1-0.796-0.302l-6.069-5.395 6.406-5.695c0.494-0.438 1.252-0.396 1.692 0.1s0.396 1.253-0.1 1.694l-4.389 3.902 4.052 3.601c0.495 0.44 0.54 1.198 0.1 1.694-0.236 0.267-0.566 0.403-0.896 0.403zM17.594 17.091l6.406-5.695-6.069-5.395c-0.495-0.44-1.253-0.396-1.692 0.1-0.44 0.495-0.396 1.253 0.1 1.694l4.052 3.602-4.389 3.9c-0.495 0.44-0.54 1.198-0.1 1.694 0.236 0.267 0.566 0.403 0.896 0.403 0.283 0 0.569-0.1 0.796-0.302zM11.983 18.79l2.399-14.393c0.109-0.654-0.332-1.271-0.986-1.381-0.656-0.11-1.273 0.332-1.379 0.986l-2.399 14.393c-0.109 0.654 0.332 1.271 0.986 1.381 0.067 0.011 0.132 0.016 0.198 0.016 0.576 0 1.084-0.416 1.181-1.002z"></path>
</svg>
