<!-- Generated by IcoMoon.io -->
<svg version="1.1" xmlns="http://www.w3.org/2000/svg" width="24" height="24" viewBox="0 0 24 24">
<title>color-correct</title>
<path d="M19.911 3.508c-0.887-0.775-1.887-1.395-3-1.863s-2.29-0.75-3.532-0.846v3.847c0.709 0.081 1.387 0.258 2.032 0.533s1.234 0.629 1.766 1.064l2.733-2.734zM20.105 11.419h3.895c-0.097-1.242-0.383-2.42-0.859-3.532s-1.093-2.121-1.851-3.024l-2.734 2.758c0.42 0.533 0.762 1.121 1.028 1.766s0.439 1.322 0.52 2.031zM18.508 17.129l2.782 2.782c0.758-0.903 1.375-1.911 1.851-3.024s0.762-2.29 0.859-3.532h-3.919c-0.081 0.709-0.258 1.383-0.533 2.020s-0.62 1.222-1.040 1.754zM13.379 20.032v3.968c1.242-0.113 2.42-0.403 3.532-0.871s2.113-1.081 3-1.839l-2.782-2.806c-0.533 0.42-1.117 0.762-1.754 1.028s-1.302 0.439-1.996 0.52zM4.887 21.29c0.903 0.758 1.908 1.371 3.012 1.839s2.278 0.758 3.52 0.871v-3.968c-0.694-0.081-1.359-0.254-1.996-0.52s-1.221-0.609-1.754-1.028l-2.782 2.806zM4.718 13.355h-3.919c0.097 1.242 0.383 2.42 0.859 3.532s1.093 2.121 1.851 3.024l2.782-2.782c-0.42-0.533-0.766-1.117-1.041-1.754s-0.451-1.311-0.532-2.020zM4.427 7.258l6.798 6.774 3.774 1.96 0.992-0.992-1.936-3.799-6.797-6.798-2.831 2.855zM1.597 5.831c-0.194 0.193-0.291 0.427-0.291 0.701s0.097 0.516 0.291 0.726c0.193 0.193 0.428 0.291 0.702 0.291s0.508-0.097 0.702-0.291l4.258-4.258c0.192-0.194 0.29-0.432 0.29-0.713s-0.097-0.52-0.291-0.713c-0.194-0.193-0.428-0.291-0.702-0.291s-0.516 0.097-0.725 0.29l-0.702 0.726-1.718-1.718c-0.387-0.387-0.855-0.581-1.403-0.581s-1.024 0.193-1.428 0.581c-0.387 0.387-0.581 0.859-0.581 1.415s0.193 1.028 0.581 1.415l1.718 1.718-0.701 0.702z"></path>
</svg>
