<!-- Generated by IcoMoon.io -->
<svg version="1.1" xmlns="http://www.w3.org/2000/svg" width="24" height="24" viewBox="0 0 24 24">
<title>compare</title>
<path d="M11.744 23.548c-0.945 0-1.713-0.767-1.713-1.713v-20.123c0-0.945 0.767-1.713 1.713-1.713s1.713 0.767 1.713 1.713v20.123c0 0.946-0.767 1.713-1.713 1.713zM7.89 18.307h-2.498v-13.065h2.498v-2.569h-3.782c-0.71 0-1.284 0.575-1.284 1.284v15.634c0 0.709 0.575 1.284 1.284 1.284h3.782v-2.569zM19.379 2.673h-3.782v2.569h2.498v13.065h-2.498v2.569h3.782c0.709 0 1.284-0.575 1.284-1.284v-15.634c0-0.71-0.575-1.284-1.284-1.284z"></path>
</svg>
