<!-- Generated by IcoMoon.io -->
<svg version="1.1" xmlns="http://www.w3.org/2000/svg" width="21" height="24" viewBox="0 0 21 24">
<title>copy</title>
<path d="M20.341 3.091l-2.432-2.432c-0.422-0.422-0.994-0.659-1.591-0.659h-8.068c-1.243 0-2.25 1.007-2.25 2.25v2.25h-3.75c-1.243 0-2.25 1.007-2.25 2.25v15c0 1.243 1.007 2.25 2.25 2.25h10.5c1.243 0 2.25-1.007 2.25-2.25v-2.25h3.75c1.243 0 2.25-1.007 2.25-2.25v-12.568c0-0.597-0.237-1.169-0.659-1.591v0zM12.469 21.75h-9.938c-0.155 0-0.281-0.126-0.281-0.281 0 0 0 0 0 0v-14.438c0-0.155 0.126-0.281 0.281-0.281h3.469v10.5c0 1.243 1.007 2.25 2.25 2.25h4.5v1.969c0 0.155-0.126 0.281-0.281 0.281zM18.469 17.25h-9.938c-0.155 0-0.281-0.126-0.281-0.281 0 0 0 0 0 0v-14.438c0-0.155 0.126-0.281 0.281-0.281h4.969v4.125c0 0.621 0.504 1.125 1.125 1.125h4.125v9.469c0 0.155-0.126 0.281-0.281 0.281zM18.75 5.25h-3v-3h0.451c0.075 0 0.146 0.030 0.199 0.082l2.267 2.267c0.053 0.053 0.082 0.124 0.082 0.199v0.452z"></path>
</svg>
