<!-- Generated by IcoMoon.io -->
<svg version="1.1" xmlns="http://www.w3.org/2000/svg" width="24" height="24" viewBox="0 0 24 24">
<title>cross</title>
<path d="M17.435 18.754c-0.593 0.595-1.553 0.595-2.145 0l-3.35-3.846-3.35 3.844c-0.593 0.595-1.553 0.595-2.145 0-0.593-0.595-0.593-1.56 0-2.154l3.485-3.998-3.487-4c-0.593-0.595-0.593-1.559 0-2.154s1.552-0.595 2.145 0l3.351 3.847 3.35-3.847c0.593-0.595 1.552-0.595 2.145 0s0.593 1.56 0 2.154l-3.485 4 3.485 3.998c0.593 0.595 0.593 1.56 0 2.155z"></path>
</svg>
