<!-- Generated by IcoMoon.io -->
<svg version="1.1" xmlns="http://www.w3.org/2000/svg" width="24" height="24" viewBox="0 0 24 24">
<title>crosshair</title>
<path d="M11.988 24c-1.645 0-3.199-0.316-4.661-0.947s-2.737-1.491-3.825-2.579c-1.088-1.088-1.944-2.359-2.567-3.813s-0.934-3.004-0.934-4.649c0-1.661 0.311-3.219 0.935-4.673s1.478-2.725 2.567-3.813c1.089-1.088 2.363-1.948 3.825-2.579s3.015-0.948 4.66-0.948c1.645 0 3.199 0.316 4.661 0.947s2.737 1.487 3.825 2.567c1.088 1.080 1.944 2.351 2.567 3.813s0.935 3.024 0.935 4.686c0 1.645-0.311 3.194-0.935 4.648s-1.478 2.725-2.567 3.813c-1.089 1.088-2.363 1.948-3.825 2.579s-3.016 0.948-4.661 0.948zM13.483 3.115v2.891c0 0.216-0.075 0.395-0.225 0.536s-0.324 0.212-0.523 0.212h-1.495c-0.216 0-0.395-0.075-0.536-0.225s-0.212-0.324-0.212-0.523v-2.891c-0.931 0.166-1.811 0.465-2.641 0.897s-1.566 0.971-2.206 1.62c-0.64 0.648-1.18 1.383-1.621 2.206s-0.735 1.707-0.885 2.654h2.841c0.216 0 0.395 0.071 0.536 0.212s0.212 0.32 0.212 0.536v1.471c0 0.216-0.075 0.395-0.225 0.536s-0.323 0.211-0.523 0.211h-2.866c0.15 0.947 0.444 1.832 0.885 2.654s0.98 1.558 1.62 2.206c0.64 0.648 1.37 1.188 2.193 1.62s1.707 0.731 2.654 0.897v-2.841c0-0.216 0.075-0.395 0.225-0.536s0.324-0.212 0.523-0.212h1.495c0.216 0 0.395 0.075 0.536 0.225s0.212 0.324 0.212 0.523v2.866c0.931-0.166 1.811-0.465 2.641-0.897s1.57-0.972 2.218-1.62c0.647-0.647 1.188-1.383 1.62-2.206s0.723-1.707 0.872-2.654h-2.817c-0.216 0-0.395-0.071-0.536-0.212s-0.212-0.32-0.212-0.536v-1.471c0-0.216 0.075-0.395 0.225-0.536s0.324-0.212 0.523-0.212h2.841c-0.15-0.947-0.441-1.832-0.872-2.654s-0.972-1.558-1.62-2.206c-0.647-0.648-1.387-1.192-2.218-1.632s-1.711-0.743-2.64-0.909z"></path>
</svg>
