<!-- Generated by IcoMoon.io -->
<svg version="1.1" xmlns="http://www.w3.org/2000/svg" width="24" height="24" viewBox="0 0 24 24">
<title>database</title>
<path d="M20.967 15.874c-1.15 1.859-4.82 3.22-9.172 3.22s-8.022-1.361-9.173-3.22c-0.243-0.395-0.372-0.184-0.372 0.010 0 0.196 0 2.73 0 2.73 0 2.645 4.274 5.386 9.545 5.386s9.545-2.741 9.545-5.385c0 0 0-2.534 0-2.73 0-0.195-0.131-0.406-0.374-0.011zM20.982 8.898c-1.132 1.643-4.816 2.85-9.187 2.85s-8.056-1.207-9.188-2.85c-0.233-0.338-0.357-0.154-0.357-0.003 0 0.154 0 3.214 0 3.214 0 2.403 4.274 4.349 9.545 4.349s9.545-1.947 9.545-4.349c0 0 0-3.060 0-3.214 0-0.151-0.125-0.335-0.359 0.003zM11.795 0c-5.272 0-9.545 1.609-9.545 3.59v1.718c0 2.101 4.274 3.806 9.545 3.806s9.545-1.705 9.545-3.806v-1.718c0-1.981-4.274-3.59-9.545-3.59z"></path>
</svg>
