<!-- Generated by IcoMoon.io -->
<svg version="1.1" xmlns="http://www.w3.org/2000/svg" width="21" height="24" viewBox="0 0 21 24">
<title>document</title>
<path d="M19.661 5.089c0.25 0.25 0.464 0.589 0.643 1.018s0.268 0.821 0.268 1.179v15.429c0 0.357-0.125 0.661-0.375 0.911s-0.554 0.375-0.911 0.375h-18c-0.357 0-0.661-0.125-0.911-0.375s-0.375-0.554-0.375-0.911v-21.429c0-0.357 0.125-0.661 0.375-0.911s0.554-0.375 0.911-0.375h12c0.357 0 0.75 0.089 1.179 0.268s0.768 0.393 1.018 0.643l4.179 4.179zM13.714 1.821v5.036h5.036c-0.089-0.259-0.188-0.442-0.295-0.549l-4.192-4.192c-0.107-0.107-0.29-0.205-0.549-0.295zM18.857 22.286v-13.714h-5.571c-0.357 0-0.661-0.125-0.911-0.375s-0.375-0.554-0.375-0.911v-5.571h-10.286v20.571h17.143zM5.143 10.714c0-0.125 0.040-0.228 0.121-0.308s0.183-0.121 0.308-0.121h9.429c0.125 0 0.228 0.040 0.308 0.121s0.121 0.183 0.121 0.308v0.857c0 0.125-0.040 0.228-0.121 0.308s-0.183 0.121-0.308 0.121h-9.429c-0.125 0-0.228-0.040-0.308-0.121s-0.121-0.183-0.121-0.308v-0.857zM15 13.714c0.125 0 0.228 0.040 0.308 0.121s0.121 0.183 0.121 0.308v0.857c0 0.125-0.040 0.228-0.121 0.308s-0.183 0.121-0.308 0.121h-9.429c-0.125 0-0.228-0.040-0.308-0.121s-0.121-0.183-0.121-0.308v-0.857c0-0.125 0.040-0.228 0.121-0.308s0.183-0.121 0.308-0.121h9.429zM15 17.143c0.125 0 0.228 0.040 0.308 0.121s0.121 0.183 0.121 0.308v0.857c0 0.125-0.040 0.228-0.121 0.308s-0.183 0.121-0.308 0.121h-9.429c-0.125 0-0.228-0.040-0.308-0.121s-0.121-0.183-0.121-0.308v-0.857c0-0.125 0.040-0.228 0.121-0.308s0.183-0.121 0.308-0.121h9.429z"></path>
</svg>
