<!-- Generated by IcoMoon.io -->
<svg version="1.1" xmlns="http://www.w3.org/2000/svg" width="24" height="24" viewBox="0 0 24 24">
<title>download</title>
<path d="M13.65 18.014l-1.241 1.241v-6.3c0-0.572-0.382-0.955-0.955-0.955s-0.955 0.383-0.955 0.955v6.3l-1.241-1.241c-0.382-0.38-0.955-0.38-1.336 0-0.381 0.382-0.381 0.955 0 1.336l2.756 2.756c0.164 0.241 0.428 0.394 0.776 0.394s0.614-0.154 0.778-0.395l2.754-2.755c0.382-0.382 0.382-0.955 0-1.336-0.382-0.38-0.955-0.38-1.336 0zM22.909 11.045c0 3.15-2.577 5.727-5.727 5.727h-1.909c-0.572 0-0.955-0.382-0.955-0.955s0.383-0.955 0.955-0.955h1.909c2.1 0 3.818-1.718 3.818-3.818s-1.718-3.818-3.818-3.818c-0.286 0-0.668 0-0.955 0.095-0.477 0.191-1.049-0.095-1.241-0.573-0.573-2.004-2.386-3.341-4.486-3.341-2.673 0-4.773 2.1-4.773 4.773 0 0.573-0.382 0.955-0.955 0.955-1.623 0-2.864 1.241-2.864 2.864s1.241 2.864 2.864 2.864h2.864c0.573 0 0.955 0.383 0.955 0.955s-0.382 0.955-0.955 0.955h-2.864c-2.673 0-4.773-2.1-4.773-4.773 0-2.365 1.649-4.275 3.879-4.685 0.419-3.304 3.192-5.815 6.621-5.815 2.573 0 4.905 1.549 6.046 3.871 0.212-0.029 0.425-0.053 0.636-0.053 3.15 0 5.727 2.577 5.727 5.727z"></path>
</svg>
