<!-- Generated by IcoMoon.io -->
<svg version="1.1" xmlns="http://www.w3.org/2000/svg" width="24" height="24" viewBox="0 0 24 24">
<title>dropbox</title>
<path d="M4.875 9.353l7.125 4.399-4.933 4.11-7.067-4.6 4.875-3.909zM19.096 17.357v1.558l-7.067 4.226v0.015l-0.016-0.015-0.015 0.015v-0.015l-7.052-4.227v-1.558l2.12 1.384 4.933-4.096v-0.028l0.015 0.015 0.016-0.015v0.028l4.947 4.096 2.119-1.384zM7.067 0.857l4.933 4.11-7.125 4.384-4.875-3.894 7.067-4.6zM19.125 9.353l4.874 3.909-7.053 4.6-4.947-4.11 7.126-4.399zM16.947 0.857l7.053 4.6-4.874 3.895-7.126-4.384 4.947-4.111z"></path>
</svg>
