<!-- Generated by IcoMoon.io -->
<svg version="1.1" xmlns="http://www.w3.org/2000/svg" width="24" height="24" viewBox="0 0 24 24">
<title>duplicate</title>
<path d="M7.2 7.2v-4.793c0-1.329 1.076-2.407 2.407-2.407h11.986c1.329 0 2.407 1.076 2.407 2.407v11.986c0 1.329-1.076 2.407-2.407 2.407h-4.793v-7.193c0-1.331-1.078-2.407-2.407-2.407h-7.193v-1.2h2.4v-3.6h12v12h-3.6v2.4h-1.2v4.793c0 1.329-1.076 2.407-2.407 2.407h-11.986c-1.329 0-2.407-1.076-2.407-2.407v-11.986c0-1.329 1.076-2.407 2.407-2.407h4.793zM7.2 9.6h-4.8v12h12v-12h-7.2zM7.2 14.4v-2.4h2.4v2.4h2.4v2.4h-2.4v2.4h-2.4v-2.4h-2.4v-2.4h2.4z"></path>
</svg>
