<!-- Generated by IcoMoon.io -->
<svg version="1.1" xmlns="http://www.w3.org/2000/svg" width="24" height="24" viewBox="0 0 24 24">
<title>edit</title>
<path d="M21.6 5l-2.6-2.6-11.099 11.1-0.601 3.2 3.2-0.6 11.1-11.1zM23.701 5.7l-12 12c-0.101 0.1-0.3 0.2-0.5 0.3l-5 1h-0.201c-0.299 0-0.5-0.1-0.7-0.3s-0.3-0.6-0.3-0.9l1-5c0-0.2 0.1-0.4 0.3-0.5l12-12c0.401-0.4 1-0.4 1.401 0l4 4c0.399 0.4 0.399 1 0 1.4v0zM21.901 13v7.2c0.099 2.1-1.601 3.8-3.7 3.8h-14.401c-2.099 0-3.8-1.7-3.8-3.8v-14.4c0-2.1 1.701-3.8 3.8-3.8h7.2c0.6 0 1 0.4 1 1s-0.4 1-1 1h-7.2c-1 0-1.8 0.8-1.8 1.8v14.3c0 1 0.8 1.8 1.8 1.8h14.3c1 0 1.801-0.8 1.801-1.8v-7.1c0-0.6 0.399-1 1-1 0.599 0 1 0.4 1 1v0z"></path>
</svg>
