<!-- Generated by IcoMoon.io -->
<svg version="1.1" xmlns="http://www.w3.org/2000/svg" width="24" height="24" viewBox="0 0 24 24">
<title>exchange</title>
<path d="M24 14.571v2.571c0 0.116-0.042 0.217-0.127 0.301s-0.185 0.127-0.301 0.127h-18.429v2.571c0 0.116-0.042 0.217-0.127 0.301s-0.185 0.127-0.301 0.127c-0.107 0-0.214-0.045-0.321-0.134l-4.272-4.286c-0.080-0.080-0.121-0.179-0.121-0.295 0-0.125 0.040-0.228 0.121-0.308l4.286-4.286c0.080-0.080 0.183-0.121 0.308-0.121 0.116 0 0.217 0.042 0.301 0.127s0.127 0.185 0.127 0.301v2.571h18.429c0.116 0 0.217 0.042 0.301 0.127s0.127 0.185 0.127 0.301zM24 7.286c0 0.125-0.040 0.228-0.121 0.308l-4.286 4.286c-0.080 0.080-0.183 0.121-0.308 0.121-0.116 0-0.217-0.042-0.301-0.127s-0.127-0.185-0.127-0.301v-2.571h-18.429c-0.116 0-0.217-0.042-0.301-0.127s-0.127-0.185-0.127-0.301v-2.571c0-0.116 0.042-0.217 0.127-0.301s0.185-0.127 0.301-0.127h18.429v-2.571c0-0.125 0.040-0.228 0.121-0.308s0.183-0.121 0.308-0.121c0.107 0 0.214 0.045 0.321 0.134l4.272 4.272c0.080 0.080 0.121 0.183 0.121 0.308z"></path>
</svg>
