<!-- Generated by IcoMoon.io -->
<svg version="1.1" xmlns="http://www.w3.org/2000/svg" width="24" height="24" viewBox="0 0 24 24">
<title>export</title>
<path d="M23.765 0h-20.364c-0.063 0-0.117 0.023-0.164 0.070s-0.070 0.102-0.070 0.164v9.548h-3.167v12.035c0 0.063 0 0.141 0 0.235s0 0.172 0 0.235v0.68c0 0.063 0 0.129 0 0.199s0 0.121 0 0.152v0.094h14.428v-2.557h9.337c0.063 0 0.117-0.023 0.164-0.070s0.070-0.102 0.070-0.164v-20.387c0-0.063-0.023-0.117-0.070-0.164s-0.102-0.070-0.164-0.070l-0 0zM22.592 19.167c0 0.063-0.023 0.117-0.070 0.164s-0.102 0.070-0.164 0.070h-17.595c-0.063 0-0.117-0.023-0.164-0.070s-0.070-0.102-0.070-0.164v-17.595c0-0.063 0.023-0.117 0.070-0.164s0.102-0.070 0.164-0.070h17.595c0.063 0 0.117 0.023 0.164 0.070s0.070 0.102 0.070 0.164v17.595zM19.941 8.328l-3.472-3.472c-0.063-0.047-0.125-0.086-0.188-0.117s-0.133-0.047-0.211-0.047c-0.047 0-0.086 0.004-0.117 0.012s-0.070 0.020-0.117 0.035c-0.109 0.047-0.195 0.117-0.258 0.211s-0.094 0.203-0.094 0.328v1.736h-1.431c-0.328 0-0.641 0.008-0.938 0.023s-0.579 0.039-0.845 0.070c-0.282 0.031-0.54 0.070-0.774 0.117s-0.461 0.102-0.68 0.164c-0.203 0.047-0.399 0.109-0.587 0.188s-0.36 0.156-0.516 0.235c-0.172 0.094-0.328 0.188-0.469 0.282s-0.274 0.188-0.399 0.282c-0.109 0.094-0.219 0.199-0.328 0.317s-0.203 0.239-0.282 0.364c-0.094 0.125-0.176 0.246-0.246 0.364s-0.129 0.239-0.176 0.364c-0.063 0.125-0.113 0.254-0.152 0.387s-0.074 0.27-0.106 0.411c-0.031 0.141-0.059 0.278-0.082 0.411s-0.035 0.262-0.035 0.387c-0.016 0.141-0.027 0.278-0.035 0.411s-0.012 0.27-0.012 0.411c0 0.172 0.016 0.352 0.047 0.54s0.070 0.375 0.117 0.563c0.047 0.203 0.102 0.391 0.164 0.563s0.125 0.328 0.188 0.469c0.063 0.156 0.129 0.309 0.199 0.457s0.152 0.301 0.246 0.457c0.078 0.156 0.149 0.285 0.211 0.387s0.109 0.176 0.141 0.223c0.031 0.047 0.063 0.094 0.094 0.141s0.063 0.094 0.094 0.141c0.031 0.031 0.066 0.059 0.106 0.082s0.082 0.035 0.129 0.035c0.016 0 0.031 0 0.047 0s0.039-0.008 0.070-0.023c0.063-0.031 0.109-0.070 0.141-0.117s0.039-0.109 0.023-0.188c-0.125-1.017-0.133-1.881-0.023-2.592s0.344-1.271 0.704-1.677c0.344-0.391 0.845-0.684 1.501-0.88s1.478-0.293 2.463-0.293h1.431v1.713c0 0.141 0.031 0.254 0.094 0.34s0.149 0.152 0.258 0.199c0.047 0.016 0.086 0.027 0.117 0.035s0.070 0.012 0.117 0.012c0.078 0 0.152-0.016 0.223-0.047s0.129-0.070 0.176-0.117l3.472-3.472c0.063-0.063 0.106-0.125 0.129-0.188s0.035-0.133 0.035-0.211c0-0.078-0.012-0.152-0.035-0.223s-0.066-0.137-0.129-0.199v0z"></path>
</svg>
