<!-- Generated by IcoMoon.io -->
<svg version="1.1" xmlns="http://www.w3.org/2000/svg" width="24" height="24" viewBox="0 0 24 24">
<title>extent</title>
<path d="M10.999 11.147l-2.94 2.94-0.83-0.83c-0.060-0.058-0.124-0.103-0.19-0.134-0.069-0.030-0.146-0.045-0.237-0.045-0.074 0-0.15 0.015-0.224 0.045s-0.136 0.067-0.18 0.111c-0.059 0.060-0.105 0.127-0.134 0.2-0.031 0.076-0.045 0.151-0.045 0.227v3.343c0 0.089 0.010 0.168 0.033 0.236 0.022 0.066 0.063 0.13 0.124 0.189s0.123 0.106 0.191 0.136c0.067 0.029 0.146 0.045 0.235 0.045h3.345c0.090 0 0.169-0.016 0.237-0.045 0.067-0.029 0.129-0.076 0.19-0.136 0.058-0.045 0.103-0.103 0.134-0.178s0.044-0.15 0.044-0.224c0-0.091-0.014-0.168-0.044-0.237-0.031-0.067-0.076-0.13-0.134-0.19l-0.83-0.831 2.94-2.94-1.684-1.683zM19.552 13.077c-0.075 0-0.148 0.015-0.214 0.045s-0.13 0.076-0.191 0.134l-0.853 0.83-2.917-2.94-1.683 1.683 2.942 2.918-0.855 0.853c-0.060 0.060-0.099 0.124-0.123 0.19-0.022 0.069-0.034 0.137-0.034 0.213 0 0.089 0.012 0.168 0.034 0.236 0.022 0.066 0.062 0.13 0.123 0.189s0.124 0.106 0.192 0.136c0.067 0.029 0.144 0.045 0.235 0.045h3.345c0.088 0 0.168-0.016 0.234-0.045 0.068-0.029 0.131-0.076 0.193-0.136 0.060-0.045 0.101-0.103 0.124-0.178s0.033-0.15 0.033-0.224l0.022-3.367c0-0.076-0.014-0.146-0.045-0.213-0.029-0.069-0.073-0.132-0.133-0.193-0.060-0.058-0.124-0.103-0.193-0.134-0.067-0.030-0.147-0.045-0.234-0.045zM15.353 9.934l2.94-2.919 0.831 0.83c0.060 0.062 0.126 0.106 0.202 0.136 0.073 0.029 0.15 0.044 0.225 0.044 0.088 0 0.168-0.016 0.234-0.044 0.068-0.029 0.131-0.073 0.193-0.136 0.060-0.058 0.101-0.122 0.124-0.188 0.022-0.069 0.033-0.148 0.033-0.237l0.022-3.343c0-0.076-0.014-0.151-0.045-0.225-0.029-0.075-0.073-0.143-0.133-0.202-0.060-0.045-0.124-0.083-0.193-0.111-0.066-0.029-0.146-0.045-0.234-0.045h-3.345c-0.073 0-0.15 0.010-0.225 0.035-0.076 0.021-0.143 0.061-0.202 0.122-0.045 0.060-0.083 0.124-0.112 0.19-0.029 0.069-0.044 0.146-0.044 0.237 0 0.075 0.016 0.149 0.044 0.223s0.067 0.136 0.112 0.18l0.855 0.853-2.942 2.917 1.661 1.684zM6.801 8.004c0.075 0 0.149-0.010 0.225-0.035 0.075-0.021 0.143-0.061 0.202-0.124l0.83-0.83 2.94 2.942 1.661-1.683-2.917-2.94 0.83-0.83c0.058-0.060 0.103-0.124 0.134-0.19s0.044-0.146 0.044-0.235c0-0.076-0.014-0.151-0.044-0.225-0.031-0.075-0.076-0.143-0.134-0.202-0.061-0.045-0.124-0.083-0.19-0.111-0.069-0.029-0.139-0.045-0.215-0.045h-3.366c-0.074 0-0.15 0.010-0.224 0.035-0.075 0.019-0.136 0.060-0.18 0.12-0.059 0.060-0.105 0.124-0.134 0.191-0.031 0.068-0.045 0.146-0.045 0.237v3.343c0 0.090 0.010 0.169 0.033 0.237 0.022 0.067 0.063 0.13 0.124 0.188 0.060 0.062 0.123 0.103 0.191 0.124 0.067 0.024 0.145 0.035 0.235 0.035zM21.392 19.363h-16.834c-0.060 0-0.113-0.023-0.158-0.068s-0.067-0.098-0.067-0.158v-16.835c0-0.059 0.022-0.111 0.067-0.155 0.044-0.046 0.098-0.068 0.158-0.068h16.834c0.059 0 0.112 0.022 0.158 0.068 0.043 0.043 0.066 0.096 0.066 0.155v16.834c0 0.060-0.022 0.113-0.066 0.158-0.046 0.045-0.099 0.069-0.158 0.069zM22.737 0.8h-19.483c-0.060 0-0.111 0.022-0.156 0.067s-0.068 0.096-0.068 0.156v9.136h-3.030v11.514c0 0.061 0 0.135 0 0.223 0 0.091 0 0.166 0 0.227v0.65c0 0.060 0 0.124 0 0.191s0 0.117 0 0.148v0.088h13.805v-2.446h8.932c0.060 0 0.111-0.022 0.158-0.069 0.045-0.045 0.067-0.096 0.067-0.156v-19.506c0-0.060-0.022-0.111-0.067-0.156-0.047-0.044-0.098-0.067-0.158-0.067z"></path>
</svg>
