<!-- Generated by IcoMoon.io -->
<svg version="1.1" xmlns="http://www.w3.org/2000/svg" width="24" height="24" viewBox="0 0 24 24">
<title>eye-off</title>
<path d="M7.433 16.594l1.045-1.888c-0.777-0.563-1.384-1.272-1.821-2.129s-0.656-1.763-0.656-2.719c0-1.080 0.272-2.085 0.817-3.013-2.045 1.045-3.746 2.621-5.103 4.728 1.491 2.304 3.397 3.978 5.719 5.022zM12.643 6.429c0-0.179-0.062-0.33-0.188-0.455s-0.277-0.188-0.455-0.188c-1.116 0-2.074 0.4-2.873 1.199s-1.199 1.757-1.199 2.873c0 0.179 0.063 0.33 0.187 0.455s0.277 0.188 0.455 0.188c0.179 0 0.33-0.062 0.455-0.188s0.188-0.277 0.188-0.455c0-0.768 0.272-1.424 0.817-1.969s1.201-0.817 1.969-0.817c0.179 0 0.33-0.062 0.455-0.188s0.188-0.277 0.188-0.455zM17.504 3.871c0 0.063-0.004 0.103-0.013 0.121-0.938 1.679-2.344 4.205-4.219 7.58s-3.286 5.906-4.232 7.594l-0.656 1.192c-0.089 0.143-0.214 0.214-0.375 0.214-0.107 0-0.705-0.312-1.795-0.938-0.143-0.089-0.214-0.214-0.214-0.375 0-0.107 0.196-0.496 0.589-1.165-1.277-0.58-2.453-1.353-3.529-2.317s-2.007-2.058-2.792-3.281c-0.179-0.277-0.268-0.585-0.268-0.924s0.089-0.647 0.268-0.924c1.366-2.098 3.063-3.754 5.089-4.969s4.241-1.821 6.643-1.821c0.795 0 1.598 0.076 2.411 0.228l0.723-1.299c0.089-0.143 0.214-0.214 0.375-0.214 0.045 0 0.125 0.027 0.241 0.080s0.254 0.123 0.415 0.208c0.161 0.085 0.308 0.167 0.442 0.248s0.275 0.163 0.422 0.248c0.147 0.085 0.234 0.136 0.261 0.154 0.143 0.089 0.214 0.21 0.214 0.362zM18 9.857c0 1.241-0.353 2.373-1.058 3.395s-1.638 1.757-2.799 2.203l3.75-6.723c0.071 0.402 0.107 0.777 0.107 1.125zM24 11.571c0 0.312-0.089 0.621-0.268 0.924-0.348 0.571-0.835 1.219-1.46 1.942-1.339 1.536-2.891 2.728-4.654 3.576s-3.636 1.272-5.618 1.272l0.991-1.768c1.893-0.161 3.645-0.772 5.257-1.835s2.958-2.433 4.038-4.112c-1.027-1.598-2.286-2.911-3.777-3.938l0.844-1.5c0.848 0.571 1.663 1.254 2.444 2.049s1.426 1.616 1.935 2.464c0.179 0.304 0.268 0.612 0.268 0.924z"></path>
</svg>
