<!-- Generated by IcoMoon.io -->
<svg version="1.1" xmlns="http://www.w3.org/2000/svg" width="24" height="24" viewBox="0 0 24 24">
<title>eye</title>
<path d="M22.286 12c-1.357-2.107-3.058-3.683-5.103-4.728 0.545 0.929 0.817 1.933 0.817 3.013 0 1.652-0.587 3.065-1.761 4.239s-2.587 1.761-4.239 1.761c-1.652 0-3.065-0.587-4.239-1.761s-1.761-2.587-1.761-4.239c0-1.080 0.272-2.085 0.817-3.013-2.045 1.045-3.746 2.621-5.103 4.728 1.188 1.83 2.676 3.288 4.467 4.373s3.73 1.627 5.819 1.627c2.089 0 4.029-0.542 5.819-1.627s3.279-2.542 4.467-4.373zM12.643 6.857c0-0.179-0.062-0.33-0.188-0.455s-0.277-0.188-0.455-0.188c-1.116 0-2.074 0.4-2.873 1.199s-1.199 1.757-1.199 2.873c0 0.179 0.063 0.33 0.187 0.455s0.277 0.188 0.455 0.188c0.179 0 0.33-0.063 0.455-0.188s0.188-0.277 0.188-0.455c0-0.768 0.272-1.424 0.817-1.969s1.201-0.817 1.969-0.817c0.179 0 0.33-0.062 0.455-0.188s0.188-0.277 0.188-0.455zM24 12c0 0.304-0.089 0.612-0.268 0.924-1.25 2.054-2.931 3.699-5.042 4.935s-4.342 1.855-6.69 1.855c-2.348 0-4.578-0.621-6.69-1.862s-3.792-2.884-5.042-4.929c-0.179-0.312-0.268-0.621-0.268-0.924s0.089-0.612 0.268-0.924c1.25-2.045 2.931-3.688 5.042-4.929s4.342-1.862 6.69-1.862c2.348 0 4.578 0.621 6.69 1.862s3.792 2.884 5.042 4.929c0.179 0.312 0.268 0.621 0.268 0.924z"></path>
</svg>
