<!-- Generated by IcoMoon.io -->
<svg version="1.1" xmlns="http://www.w3.org/2000/svg" width="24" height="24" viewBox="0 0 24 24">
<title>eyedropper</title>
<path d="M22.741 1.259c0.839 0.839 1.259 1.85 1.259 3.033s-0.42 2.19-1.259 3.020l-3.013 2.987 1.393 1.393c0.089 0.089 0.134 0.192 0.134 0.308s-0.045 0.219-0.134 0.308l-2.813 2.813c-0.089 0.089-0.192 0.134-0.308 0.134s-0.219-0.045-0.308-0.134l-1.406-1.406-8.076 8.076c-0.33 0.33-0.732 0.496-1.205 0.496h-2.719l-3.429 1.714-0.857-0.857 1.714-3.429v-2.719c0-0.473 0.165-0.875 0.496-1.205l8.076-8.076-1.406-1.406c-0.089-0.089-0.134-0.192-0.134-0.308s0.045-0.219 0.134-0.308l2.813-2.812c0.089-0.089 0.192-0.134 0.308-0.134s0.219 0.045 0.308 0.134l1.393 1.393 2.987-3.013c0.83-0.839 1.837-1.259 3.020-1.259s2.194 0.42 3.033 1.259v0zM6.857 19.714l7.714-7.714-2.571-2.571-7.714 7.714v2.571h2.571z"></path>
</svg>
