<!-- Generated by IcoMoon.io -->
<svg version="1.1" xmlns="http://www.w3.org/2000/svg" width="24" height="24" viewBox="0 0 24 24">
<title>filter</title>
<path d="M23.719 0.659c0.191 0.462 0.113 0.856-0.237 1.183l-8.328 8.328v12.535c0 0.473-0.22 0.805-0.659 0.997-0.146 0.056-0.287 0.084-0.422 0.084-0.304 0-0.557-0.107-0.76-0.321l-4.325-4.325c-0.214-0.214-0.321-0.467-0.321-0.76v-8.21l-8.328-8.328c-0.349-0.327-0.428-0.721-0.237-1.183 0.191-0.439 0.524-0.659 0.997-0.659h21.624c0.473 0 0.805 0.22 0.997 0.659z"></path>
</svg>
