<!-- Generated by IcoMoon.io -->
<svg version="1.1" xmlns="http://www.w3.org/2000/svg" width="22" height="24" viewBox="0 0 22 24">
<title>function</title>
<path d="M0.015 6.635c0 0.031 0.004 0.057 0.011 0.080s0.019 0.050 0.034 0.080c0 0 0 0.004 0 0.011s0.008 0.011 0.023 0.011c0 0 0 0.004 0 0.011s0 0.011 0 0.011c0.015 0.015 0.027 0.027 0.034 0.034s0.019 0.019 0.034 0.034c0.015 0.015 0.031 0.027 0.046 0.034s0.031 0.019 0.046 0.034c0 0 0 0 0 0 0.031 0.015 0.582 0.298 1.653 0.849s2.246 1.156 3.524 1.814c1.278 0.658 2.453 1.263 3.524 1.814s1.622 0.834 1.653 0.849c0 0.015 0.004 0.023 0.011 0.023s0.019 0 0.034 0c0.015 0 0.034 0.004 0.057 0.011s0.050 0.011 0.080 0.011c0 0 0.004 0 0.011 0s0.011 0 0.011 0c0.031 0 0.057 0 0.080 0s0.050-0.008 0.080-0.023c0 0 0.004 0 0.011 0s0.011 0 0.011 0c0.015 0 0.031-0.004 0.046-0.011s0.031-0.019 0.046-0.034l9.895-6.038c0-0.015 0.004-0.023 0.011-0.023s0.019-0.008 0.034-0.023c0 0 0.008-0.008 0.023-0.023s0.031-0.023 0.046-0.023c0.015-0.015 0.027-0.031 0.034-0.046s0.011-0.031 0.011-0.046c0.015 0 0.023-0.004 0.023-0.011s0.008-0.019 0.023-0.034c0 0 0-0.004 0-0.011s0-0.011 0-0.011c0-0.031 0.004-0.054 0.011-0.069s0.011-0.031 0.011-0.046c0-0.015 0.004-0.031 0.011-0.046s0.004-0.031-0.011-0.046c0-0.015 0-0.031 0-0.046s0-0.031 0-0.046c0-0.015-0.004-0.031-0.011-0.046s-0.019-0.031-0.034-0.046c0 0 0-0.004 0-0.011s0-0.019 0-0.034c0 0-0.004-0.004-0.011-0.011s-0.011-0.011-0.011-0.011c-0.015-0.015-0.031-0.031-0.046-0.046s-0.023-0.023-0.023-0.023c-0.015-0.015-0.031-0.027-0.046-0.034s-0.031-0.019-0.046-0.034c0 0-0.004-0.004-0.011-0.011s-0.011-0.011-0.011-0.011l-10.308-5.326c-0.015 0-0.027 0-0.034 0s-0.019 0-0.034 0c-0.015-0.015-0.031-0.023-0.046-0.023s-0.031 0-0.046 0c-0.015-0.015-0.031-0.023-0.046-0.023s-0.031 0-0.046 0c-0.015 0-0.031 0-0.046 0s-0.023 0-0.023 0c-0.031 0.015-0.054 0.027-0.069 0.034s-0.038 0.011-0.069 0.011c0 0-0.004 0.004-0.011 0.011s-0.011 0.011-0.011 0.011c-0.031 0.015-0.543 0.325-1.538 0.93s-2.089 1.274-3.283 2.009c-1.194 0.735-2.307 1.42-3.34 2.055s-1.619 0.991-1.756 1.068c-0.031 0.015-0.065 0.038-0.103 0.069s-0.065 0.069-0.080 0.115c-0.031 0.046-0.050 0.096-0.057 0.149s-0.004 0.111 0.011 0.172c0 0 0 0 0 0l-0 0zM11.724 20.755v-1.745c-0.046 0.031-0.092 0.054-0.138 0.069s-0.084 0.031-0.115 0.046l-0.115 0.023c-0.092 0.031-0.18 0.054-0.264 0.069s-0.172 0.023-0.264 0.023h-0.115l-0.092-0.023c-0.046 0-0.099-0.008-0.161-0.023s-0.122-0.031-0.184-0.046h-0.069l-0.161-0.069c-0.031-0.015-0.276-0.142-0.735-0.379s-1.033-0.532-1.722-0.884c-0.689-0.352-1.443-0.742-2.261-1.171s-1.611-0.834-2.376-1.217c-0.704 0.444-1.309 0.819-1.814 1.125s-0.804 0.482-0.895 0.528c-0.031 0.031-0.065 0.061-0.103 0.092s-0.065 0.069-0.080 0.115c-0.031 0.046-0.050 0.096-0.057 0.149s-0.004 0.111 0.011 0.172c0 0 0 0 0 0 0 0.031 0.004 0.057 0.011 0.080s0.019 0.042 0.034 0.057c0 0.015 0 0.027 0 0.034s0.008 0.011 0.023 0.011c0 0 0 0 0 0 0.015 0.015 0.027 0.031 0.034 0.046s0.019 0.023 0.034 0.023c0.015 0.015 0.031 0.031 0.046 0.046s0.031 0.023 0.046 0.023c0 0 0 0.004 0 0.011s0 0.011 0 0.011c0.031 0.015 0.582 0.298 1.653 0.849s2.246 1.156 3.524 1.814c1.278 0.658 2.453 1.263 3.524 1.814s1.622 0.834 1.653 0.849c0 0 0.004 0 0.011 0s0.019 0 0.034 0c0.015 0.015 0.034 0.027 0.057 0.034s0.050 0.011 0.080 0.011c0 0 0.004 0 0.011 0s0.011 0 0.011 0c0.031 0 0.057 0 0.080 0s0.050-0.008 0.080-0.023c0 0 0.004 0 0.011 0s0.011 0 0.011 0c0.015-0.015 0.031-0.023 0.046-0.023s0.031-0.008 0.046-0.023l4.087-2.502h-3.444zM20.449 17.517h-1.814v-3.696h-2.158v3.696h-3.765v2.25h3.765v3.719h2.158v-3.719h3.765v-2.25h-1.951zM21.206 11.273c0-0.015 0-0.031 0-0.046s0-0.031 0-0.046c0-0.015-0.004-0.031-0.011-0.046s-0.019-0.031-0.034-0.046c0 0 0-0.004 0-0.011s0-0.019 0-0.034c0 0-0.004-0.004-0.011-0.011s-0.011-0.011-0.011-0.011c-0.015-0.015-0.031-0.031-0.046-0.046s-0.023-0.031-0.023-0.046c-0.015 0-0.031-0.008-0.046-0.023s-0.031-0.023-0.046-0.023c0 0-0.004-0.004-0.011-0.011s-0.011-0.011-0.011-0.011l-2.64-1.355-6.497 3.972c-0.061 0.031-0.122 0.061-0.184 0.092s-0.115 0.054-0.161 0.069l-0.092 0.023c-0.092 0.031-0.184 0.054-0.276 0.069s-0.191 0.023-0.298 0.023h-0.069l-0.115-0.023c-0.046 0-0.103-0.008-0.172-0.023s-0.134-0.031-0.195-0.046h-0.046l-0.161-0.069c-0.031-0.015-0.276-0.142-0.735-0.379s-1.033-0.532-1.722-0.884c-0.689-0.352-1.443-0.738-2.261-1.159s-1.611-0.83-2.376-1.228c-0.704 0.444-1.309 0.819-1.814 1.125s-0.804 0.49-0.895 0.551c-0.031 0.015-0.065 0.038-0.103 0.069s-0.065 0.069-0.080 0.115c-0.031 0.046-0.050 0.096-0.057 0.149s-0.004 0.111 0.011 0.172c0 0 0 0 0 0 0 0.031 0.004 0.057 0.011 0.080s0.019 0.050 0.034 0.080c0 0 0 0.004 0 0.011s0.008 0.011 0.023 0.011c0 0 0 0 0 0 0.015 0.015 0.027 0.031 0.034 0.046s0.019 0.031 0.034 0.046c0.015 0 0.031 0.008 0.046 0.023s0.031 0.031 0.046 0.046c0 0 0 0 0 0 0.031 0.015 0.582 0.298 1.653 0.849s2.246 1.156 3.524 1.814c1.278 0.658 2.453 1.263 3.524 1.814s1.622 0.834 1.653 0.849c0 0 0.004 0 0.011 0s0.019 0.008 0.034 0.023c0.015 0 0.034 0.004 0.057 0.011s0.050 0.011 0.080 0.011c0 0 0.004 0 0.011 0s0.011 0 0.011 0c0.031 0 0.057 0 0.080 0s0.050-0.008 0.080-0.023c0 0 0.004 0 0.011 0s0.011 0 0.011 0c0.015-0.015 0.031-0.023 0.046-0.023s0.031-0.008 0.046-0.023l4.385-2.686v-2.273h3.719l1.791-1.079c0-0.015 0.004-0.027 0.011-0.034s0.019-0.011 0.034-0.011c0-0.015 0.008-0.027 0.023-0.034s0.031-0.019 0.046-0.034c0.015 0 0.027-0.008 0.034-0.023s0.011-0.031 0.011-0.046c0.015-0.015 0.023-0.023 0.023-0.023s0.008-0.008 0.023-0.023c0 0 0-0.004 0-0.011s0-0.019 0-0.034c0-0.015 0.004-0.031 0.011-0.046s0.011-0.031 0.011-0.046c0-0.015 0.004-0.031 0.011-0.046s0.004-0.031-0.011-0.046v0z"></path>
</svg>
