<!-- Generated by IcoMoon.io -->
<svg version="1.1" xmlns="http://www.w3.org/2000/svg" width="24" height="24" viewBox="0 0 24 24">
<title>gripper</title>
<path d="M10.286 3c0 1.657-1.344 3-3 3s-3-1.344-3-3c0-1.657 1.344-3 3-3s3 1.343 3 3zM16.286 6.001c1.658 0 3-1.344 3-3s-1.343-3-3-3c-1.658 0-3 1.344-3 3s1.343 3 3 3zM7.287 8.999c-1.657 0-3 1.345-3 3 0 1.659 1.343 2.999 2.999 2.999s3-1.34 3-2.999c0-1.655-1.343-3-2.999-3zM16.286 14.999c1.657 0 2.999-1.34 2.999-2.999 0-1.655-1.343-3-2.999-3s-3 1.345-3 3c0 1.659 1.344 2.999 3 2.999zM7.286 17.999c-1.657 0-3 1.343-3 3s1.344 3 3 3c1.657 0 3-1.343 3-3s-1.344-3-3-3zM16.286 17.999c-1.658 0-3 1.343-3 3s1.343 3 3 3c1.658 0 3-1.343 3-3s-1.343-3-3-3z"></path>
</svg>
