<!-- Generated by IcoMoon.io -->
<svg version="1.1" xmlns="http://www.w3.org/2000/svg" width="24" height="24" viewBox="0 0 24 24">
<title>help</title>
<path d="M16.705 8.938c0 0.724-0.208 1.395-0.675 2.017-0.257 0.361-0.777 0.774-1.447 1.291l-0.726 0.465c-0.411 0.31-0.621 0.62-0.721 0.93-0.051 0.208-0.103 0.26-0.103 0.724v0.104h-2.793v-0.207c0.052-0.983 0.103-1.551 0.465-2.017 0.621-0.722 2.018-1.602 2.070-1.653 0.207-0.157 0.361-0.311 0.514-0.52 0.259-0.359 0.417-0.72 0.417-1.032 0-0.413-0.158-0.827-0.417-1.136-0.203-0.364-0.669-0.517-1.343-0.517-0.67 0-1.137 0.205-1.395 0.619-0.257 0.466-0.413 0.932-0.413 1.395v0.104h-2.844v-0.104c0.053-1.759 0.674-3.050 1.864-3.774 0.722-0.464 1.603-0.672 2.688-0.672 1.394 0 2.533 0.309 3.464 0.982 0.931 0.675 1.397 1.656 1.397 3.001zM13.499 17.729c0 0.983-0.723 1.706-1.759 1.705h-0.053c-0.983-0.052-1.706-0.778-1.706-1.81 0.052-0.982 0.778-1.654 1.759-1.654h0.053c1.034 0 1.756 0.724 1.706 1.759zM12 22.001c-5.501 0-10.002-4.5-10.002-10.001s4.501-10 10.002-10c5.5 0 10.002 4.499 10.002 10s-4.501 10.001-10.002 10.001zM12 0c-6.602 0-12 5.4-12 12s5.398 12 12 12c6.597 0 12-5.401 12-12s-5.403-12-12-12z"></path>
</svg>
