<!-- Generated by IcoMoon.io -->
<svg version="1.1" xmlns="http://www.w3.org/2000/svg" width="24" height="24" viewBox="0 0 24 24">
<title>home</title>
<path d="M12 0.857c0 0-7.423 6.408-11.572 9.878-0.244 0.221-0.428 0.542-0.428 0.922 0 0.664 0.536 1.2 1.2 1.2h2.4v8.4c0 0.664 0.536 1.2 1.2 1.2h3.6c0.664 0 1.2-0.538 1.2-1.2v-4.8h4.8v4.8c0 0.662 0.536 1.2 1.2 1.2h3.6c0.664 0 1.2-0.536 1.2-1.2v-8.4h2.4c0.664 0 1.2-0.536 1.2-1.2 0-0.379-0.185-0.701-0.46-0.922-4.12-3.47-11.54-9.878-11.54-9.878z"></path>
</svg>
