<!-- Generated by IcoMoon.io -->
<svg version="1.1" xmlns="http://www.w3.org/2000/svg" width="24" height="24" viewBox="0 0 24 24">
<title>imports</title>
<path d="M21.363 2.673c-0.133-0.528-0.778-0.959-1.434-0.959h-17.056c-0.658 0-1.303 0.431-1.434 0.959l-0.238 1.441h20.4l-0.237-1.441zM23.304 5.314h-22.608c-0.411 0-0.731 0.353-0.693 0.762l1.108 14.003c0.046 0.473 0.444 0.835 0.92 0.835h19.937c0.477 0 0.874-0.362 0.92-0.835l1.108-14.003c0.040-0.409-0.282-0.762-0.693-0.762zM14.4 8.914c0.663 0 1.2 0.537 1.2 1.2s-0.537 1.2-1.2 1.2c-0.663 0-1.2-0.539-1.2-1.201 0-0.661 0.537-1.199 1.2-1.199zM6 16.114l2.983-7.2 3.392 5.766 2.909-1.517 1.516 2.951h-10.8z"></path>
</svg>
