<!-- Generated by IcoMoon.io -->
<svg version="1.1" xmlns="http://www.w3.org/2000/svg" width="24" height="24" viewBox="0 0 24 24">
<title>info</title>
<path d="M12.001 0c-6.628 0-12.001 5.372-12.001 11.999 0 6.628 5.372 12.001 12.001 12.001 6.626 0 11.999-5.372 11.999-12.001 0-6.627-5.373-11.999-11.999-11.999zM13.121 4.332c1.17 0 1.514 0.679 1.514 1.455 0 0.969-0.775 1.865-2.099 1.865-1.107 0-1.635-0.556-1.602-1.477 0-0.776 0.649-1.842 2.187-1.842zM10.123 19.187c-0.8 0-1.384-0.486-0.825-2.617l0.916-3.781c0.159-0.605 0.185-0.847 0-0.847-0.239 0-1.277 0.417-1.89 0.83l-0.399-0.654c1.944-1.624 4.179-2.576 5.135-2.576 0.8 0 0.932 0.945 0.534 2.4l-1.050 3.975c-0.186 0.702-0.106 0.945 0.080 0.945 0.24 0 1.025-0.29 1.797-0.899l0.452 0.607c-1.891 1.89-3.952 2.617-4.751 2.617z"></path>
</svg>
