<!-- Generated by IcoMoon.io -->
<svg version="1.1" xmlns="http://www.w3.org/2000/svg" width="24" height="24" viewBox="0 0 24 24">
<title>key</title>
<path d="M6 8.571c0 1.255 0.285 2.441 0.77 3.516l-6.77 6.77v2.571c0 0 1.536 2.571 3.429 2.571h3.429v-3.429h3.429v-3.429h4.286c4.735 0 8.571-3.837 8.571-8.571s-3.837-8.571-8.571-8.571c-4.735 0-8.571 3.837-8.571 8.571zM14.571 12c-1.893 0-3.429-1.536-3.429-3.429 0-1.894 1.536-3.432 3.429-3.432 1.894 0 3.429 1.536 3.429 3.432 0 1.893-1.534 3.429-3.429 3.429z"></path>
</svg>
