<!-- Generated by IcoMoon.io -->
<svg version="1.1" xmlns="http://www.w3.org/2000/svg" width="24" height="24" viewBox="0 0 24 24">
<title>link</title>
<path d="M8.788 19.039l-1.215 1.207c-1.051 1.043-2.764 1.043-3.817 0-0.504-0.501-0.781-1.168-0.781-1.878s0.279-1.374 0.781-1.878l4.47-4.432c0.926-0.919 2.669-2.273 3.939-1.013 0.583 0.579 1.524 0.576 2.105-0.007 0.577-0.584 0.575-1.526-0.009-2.103-2.157-2.142-5.349-1.746-8.129 1.012l-4.47 4.434c-1.073 1.063-1.662 2.481-1.662 3.987 0 1.509 0.591 2.924 1.662 3.987 1.104 1.095 2.553 1.644 4.003 1.644s2.901-0.547 4.004-1.644l1.216-1.207c0.583-0.578 0.586-1.518 0.007-2.1-0.58-0.582-1.521-0.585-2.104-0.009zM22.337 1.813c-2.321-2.301-5.564-2.425-7.709-0.296l-1.514 1.503c-0.583 0.579-0.588 1.519-0.009 2.102 0.579 0.583 1.519 0.587 2.103 0.007l1.515-1.501c1.11-1.104 2.567-0.647 3.519 0.295 0.504 0.503 0.783 1.168 0.783 1.878s-0.279 1.376-0.783 1.877l-4.77 4.731c-2.181 2.162-3.204 1.149-3.64 0.715-0.584-0.579-1.524-0.575-2.101 0.008-0.579 0.583-0.576 1.525 0.008 2.101 1.002 0.993 2.145 1.485 3.342 1.485 1.466 0 3.015-0.738 4.489-2.2l4.77-4.729c1.068-1.065 1.66-2.481 1.66-3.987 0-1.507-0.592-2.923-1.663-3.988z"></path>
</svg>
