<!-- Generated by IcoMoon.io -->
<svg version="1.1" xmlns="http://www.w3.org/2000/svg" width="22" height="24" viewBox="0 0 22 24">
<title>load</title>
<path d="M12.418 20.319c0.337 0.335 0.505 0.742 0.505 1.219 0 0.475-0.168 0.883-0.505 1.218s-0.742 0.504-1.222 0.504c-0.476 0-0.879-0.168-1.215-0.504-0.338-0.335-0.505-0.742-0.505-1.218s0.166-0.884 0.505-1.219c0.336-0.338 0.739-0.507 1.215-0.507 0.479 0 0.886 0.169 1.222 0.507zM4.496 3.202c-0.592 0-1.097 0.212-1.521 0.633-0.424 0.422-0.634 0.931-0.634 1.523s0.209 1.098 0.634 1.521c0.424 0.421 0.929 0.631 1.521 0.631 0.59 0 1.1-0.21 1.523-0.631 0.419-0.422 0.631-0.929 0.631-1.521s-0.212-1.1-0.631-1.523c-0.422-0.422-0.932-0.633-1.523-0.633zM3.445 12.060c0-0.476-0.168-0.881-0.503-1.219-0.338-0.336-0.745-0.505-1.219-0.505s-0.88 0.17-1.219 0.505c-0.337 0.338-0.505 0.743-0.505 1.219s0.168 0.884 0.505 1.219c0.338 0.335 0.742 0.507 1.219 0.507 0.475 0 0.881-0.171 1.219-0.507 0.336-0.335 0.503-0.742 0.503-1.219zM4.496 17.041c-0.476 0-0.881 0.169-1.218 0.504-0.336 0.338-0.505 0.742-0.505 1.219 0 0.469 0.17 0.873 0.509 1.211 0.342 0.342 0.748 0.513 1.213 0.513 0.474 0 0.881-0.168 1.219-0.506 0.337-0.336 0.506-0.743 0.506-1.219s-0.17-0.88-0.506-1.219c-0.338-0.334-0.745-0.503-1.219-0.503zM20.030 7.491c0.591-0.587 0.885-1.298 0.885-2.133 0-0.827-0.294-1.536-0.885-2.128-0.594-0.592-1.303-0.887-2.126-0.887-0.836 0-1.549 0.296-2.135 0.887s-0.882 1.302-0.882 2.128c0 0.835 0.294 1.546 0.882 2.133 0.586 0.587 1.299 0.881 2.135 0.881 0.822 0 1.532-0.294 2.126-0.881zM11.196 0c-0.715 0-1.324 0.25-1.827 0.753s-0.754 1.114-0.754 1.832c0 0.717 0.251 1.328 0.754 1.83 0.503 0.501 1.112 0.755 1.827 0.755 0.72 0 1.331-0.254 1.834-0.755 0.499-0.503 0.754-1.114 0.754-1.83 0-0.718-0.255-1.33-0.754-1.832-0.503-0.503-1.114-0.753-1.834-0.753zM21.895 10.841c-0.338-0.336-0.744-0.505-1.219-0.505s-0.883 0.17-1.218 0.505c-0.338 0.338-0.507 0.743-0.507 1.219s0.17 0.884 0.507 1.219c0.335 0.335 0.742 0.507 1.218 0.507 0.474 0 0.88-0.171 1.219-0.507 0.336-0.335 0.505-0.742 0.505-1.219s-0.17-0.881-0.505-1.219zM17.904 17.041c-0.476 0-0.884 0.169-1.22 0.504-0.335 0.338-0.505 0.742-0.505 1.219 0 0.475 0.17 0.883 0.505 1.219 0.337 0.338 0.744 0.506 1.22 0.506 0.465 0 0.868-0.171 1.211-0.513 0.34-0.338 0.511-0.742 0.511-1.211 0-0.476-0.168-0.88-0.505-1.219-0.34-0.336-0.744-0.505-1.217-0.505z"></path>
</svg>
