<!-- Generated by IcoMoon.io -->
<svg version="1.1" xmlns="http://www.w3.org/2000/svg" width="24" height="24" viewBox="0 0 24 24">
<title>map</title>
<path d="M23.336 4.925l-7.2-3.6c-0.337-0.169-0.736-0.169-1.074 0l-6.756 3.378-6.727-2.243c-0.367-0.122-0.768-0.061-1.081 0.166-0.313 0.226-0.498 0.588-0.498 0.973v15.601c0 0.455 0.257 0.87 0.664 1.073l7.2 3.6c0.169 0.084 0.353 0.127 0.536 0.127s0.368-0.042 0.536-0.127l6.756-3.377 6.727 2.243c0.366 0.12 0.768 0.059 1.081-0.167s0.498-0.588 0.498-0.972v-15.602c0.001-0.455-0.256-0.87-0.662-1.073zM9.6 6.74l4.8-2.4v14.116l-4.8 2.4v-14.116zM2.4 5.263l4.8 1.6v13.993l-4.8-2.4v-13.193zM21.6 19.936l-4.8-1.601v-13.994l4.8 2.4v13.195z"></path>
</svg>
