<!-- Generated by IcoMoon.io -->
<svg version="1.1" xmlns="http://www.w3.org/2000/svg" width="24" height="24" viewBox="0 0 24 24">
<title>model</title>
<path d="M22.213 18.158v-2.967c0-2.468-2-4.468-4.468-4.468h-2.553c-1.057 0-1.915-0.858-1.915-1.915v-2.967c1.053-0.485 1.787-1.542 1.787-2.778 0-1.693-1.371-3.064-3.064-3.064s-3.064 1.371-3.064 3.064c0 1.234 0.735 2.293 1.787 2.778v2.967c0 1.057-0.858 1.915-1.915 1.915h-2.553c-2.468 0-4.468 2-4.468 4.468v2.967c-1.053 0.485-1.787 1.543-1.787 2.778 0 1.693 1.371 3.064 3.064 3.064s3.064-1.372 3.064-3.064c0-1.234-0.735-2.293-1.787-2.778v-2.967c0-1.057 0.858-1.915 1.915-1.915h2.553c0.688 0 1.333-0.169 1.915-0.447v5.329c-1.053 0.485-1.787 1.543-1.787 2.778 0 1.693 1.371 3.064 3.064 3.064s3.064-1.372 3.064-3.064c0-1.234-0.735-2.293-1.787-2.778v-5.329c0.582 0.278 1.227 0.447 1.915 0.447h2.553c1.057 0 1.915 0.858 1.915 1.915v2.967c-1.053 0.485-1.787 1.542-1.787 2.778 0 1.693 1.371 3.064 3.064 3.064s3.064-1.372 3.064-3.064c0-1.234-0.734-2.293-1.787-2.778zM12 1.296c0.975 0 1.767 0.79 1.767 1.768 0 0.975-0.791 1.768-1.767 1.768-0.977 0-1.767-0.793-1.767-1.768 0-0.978 0.79-1.768 1.767-1.768zM3.064 22.704c-0.978 0-1.768-0.793-1.768-1.768 0-0.978 0.79-1.768 1.768-1.768 0.975 0 1.767 0.79 1.767 1.768 0 0.975-0.791 1.768-1.767 1.768zM12 22.704c-0.978 0-1.768-0.793-1.768-1.768 0-0.978 0.79-1.768 1.768-1.768 0.975 0 1.767 0.79 1.767 1.768 0 0.975-0.791 1.768-1.767 1.768zM20.936 22.704c-0.978 0-1.768-0.793-1.768-1.768 0-0.978 0.79-1.768 1.768-1.768 0.975 0 1.767 0.79 1.767 1.768 0 0.975-0.791 1.768-1.767 1.768z"></path>
</svg>
