<!-- Generated by IcoMoon.io -->
<svg version="1.1" xmlns="http://www.w3.org/2000/svg" width="24" height="24" viewBox="0 0 24 24">
<title>mosaic</title>
<path d="M17.143 6.857h3.429c1.894 0 3.429 1.535 3.429 3.429v10.286c0 1.894-1.535 3.429-3.429 3.429h-10.286c-1.894 0-3.429-1.535-3.429-3.429v-3.429h-3.429c-1.894 0-3.429-1.535-3.429-3.429v-10.286c0-1.894 1.535-3.429 3.429-3.429v0h10.286c1.894 0 3.429 1.535 3.429 3.429v3.429zM13.714 6.857v-1.714c0-0.947-0.768-1.714-1.714-1.714h-6.857c-0.947 0-1.714 0.768-1.714 1.714v6.857c0 0.947 0.768 1.714 1.714 1.714h1.714v-3.429c0-1.894 1.535-3.429 3.429-3.429v0h3.429zM12 10.286c-0.947 0-1.714 0.768-1.714 1.714v6.857c0 0.947 0.768 1.714 1.714 1.714h6.857c0.947 0 1.714-0.768 1.714-1.714v-6.857c0-0.947-0.768-1.714-1.714-1.714h-6.857z"></path>
</svg>
