<!-- Generated by IcoMoon.io -->
<svg version="1.1" xmlns="http://www.w3.org/2000/svg" width="24" height="24" viewBox="0 0 24 24">
<title>pencil</title>
<path d="M18.033 1.804c-2.631-1.916-4.504-1.874-5.216-1.759-0.2 0.032-0.368 0.147-0.486 0.31l-9.563 13.195c-0.385 0.531-0.607 1.161-0.642 1.816l-0.411 7.814c-0.029 0.563 0.531 0.97 1.056 0.768l7.302-2.793c0.615-0.236 1.15-0.646 1.537-1.18l9.559-13.19c0.124-0.171 0.174-0.379 0.139-0.588-0.117-0.731-0.677-2.504-3.275-4.393zM10.096 19.594l-2.838 1.096c-0.111 0.043-0.235 0.008-0.307-0.086-0.365-0.465-0.8-0.927-1.494-1.431-0.693-0.503-1.266-0.775-1.82-0.981-0.111-0.042-0.182-0.147-0.175-0.267l0.17-3.037 0.763-1.049c0 0 1.707-0.235 3.936 1.387 2.226 1.62 2.53 3.318 2.53 3.318l-0.764 1.050z"></path>
</svg>
