<!-- Generated by IcoMoon.io -->
<svg version="1.1" xmlns="http://www.w3.org/2000/svg" width="24" height="24" viewBox="0 0 24 24">
<title>polygon</title>
<path d="M19.673 7.116v12.111c-0.387 0.12-0.722 0.321-1.005 0.603s-0.483 0.61-0.603 0.982h-13.293c-0.119-0.372-0.321-0.699-0.603-0.982-0.283-0.282-0.617-0.483-1.005-0.603v-13.316c0.387-0.119 0.722-0.32 1.005-0.603s0.483-0.609 0.603-0.981h13.293c0.12 0.37 0.321 0.699 0.603 0.981s0.618 0.483 1.005 0.603v1.205zM21.435 19.339v-13.539c0.415-0.195 0.753-0.487 1.014-0.88s0.391-0.837 0.391-1.328c0-0.669-0.237-1.242-0.714-1.718s-1.048-0.714-1.718-0.714c-0.49 0-0.933 0.126-1.326 0.379-0.395 0.253-0.689 0.588-0.881 1.003h-13.563c-0.193-0.416-0.487-0.75-0.881-1.003s-0.836-0.378-1.326-0.378c-0.669 0-1.242 0.237-1.718 0.714s-0.714 1.047-0.714 1.718c0 0.491 0.13 0.933 0.391 1.328 0.261 0.393 0.598 0.686 1.014 0.88v13.539c-0.416 0.195-0.753 0.487-1.014 0.881s-0.391 0.837-0.391 1.326c0 0.685 0.237 1.265 0.714 1.74 0.476 0.477 1.048 0.714 1.718 0.714 0.491 0 0.933-0.13 1.326-0.391s0.688-0.598 0.881-1.014h13.562c0.193 0.415 0.486 0.753 0.881 1.014 0.393 0.261 0.836 0.391 1.326 0.391 0.669 0 1.242-0.237 1.718-0.714s0.714-1.055 0.714-1.74c0-0.489-0.13-0.932-0.391-1.326s-0.598-0.687-1.013-0.881z"></path>
</svg>
