<!-- Generated by IcoMoon.io -->
<svg version="1.1" xmlns="http://www.w3.org/2000/svg" width="24" height="24" viewBox="0 0 24 24">
<title>processing</title>
<path d="M16.7 16.7c-0.201 0.202-0.4 0.301-0.699 0.301-0.301 0-0.503-0.099-0.701-0.301l-3.887-3.886c-0.252-0.172-0.413-0.448-0.413-0.813v-7c0-0.6 0.4-1 1.002-1s1.001 0.4 1.001 1v6.6l3.699 3.701c0.4 0.4 0.4 0.997 0 1.398zM12 23.999c-6.601 0-12-5.399-12-11.999s5.399-12 12-12c6.598 0 12 5.401 12 12s-5.402 11.999-12 11.999zM12 2c-5.501 0-10.001 4.498-10.001 9.999s4.5 10 10.001 10c5.5 0 10.001-4.5 10.001-10s-4.501-9.999-10.001-9.999z"></path>
</svg>
