<!-- Generated by IcoMoon.io -->
<svg version="1.1" xmlns="http://www.w3.org/2000/svg" width="24" height="24" viewBox="0 0 24 24">
<title>project</title>
<path d="M22.69 17.252c0-0.017 0-0.030 0-0.049 0-0.017 0-0.032 0-0.047 0-0.019-0.005-0.032-0.011-0.050-0.009-0.014-0.014-0.033-0.014-0.049-0.015-0.014-0.023-0.030-0.023-0.035 0-0.009 0-0.014 0-0.014s-0.005-0.005-0.009-0.009c-0.011-0.012-0.016-0.023-0.016-0.039-0.014 0-0.030-0.007-0.049-0.025-0.015-0.014-0.023-0.032-0.023-0.046-0.019-0.017-0.032-0.030-0.049-0.035-0.014-0.009-0.034-0.014-0.049-0.014 0-0.017-0.005-0.025-0.009-0.025-0.011 0-0.016-0.005-0.016-0.025l-2.718-1.392-6.684 4.11c-0.064 0.033-0.128 0.060-0.19 0.097-0.063 0.030-0.118 0.051-0.165 0.069l-0.117 0.022c-0.095 0.033-0.184 0.056-0.272 0.069-0.088 0.019-0.178 0.027-0.272 0.027h-0.117l-0.094-0.027c-0.050 0-0.101-0.009-0.165-0.022-0.065-0.017-0.128-0.030-0.192-0.049h-0.071l-0.165-0.069c-0.031-0.017-0.283-0.145-0.755-0.392-0.472-0.242-1.065-0.546-1.773-0.911-0.709-0.36-1.486-0.76-2.328-1.203s-1.658-0.86-2.444-1.254c-0.725 0.456-1.348 0.843-1.87 1.157-0.52 0.316-0.827 0.497-0.921 0.541-0.031 0.035-0.065 0.065-0.106 0.097-0.040 0.030-0.066 0.069-0.083 0.118-0.031 0.051-0.050 0.101-0.059 0.154-0.007 0.053-0.002 0.115 0.009 0.178 0 0.029 0.005 0.055 0.011 0.082 0.007 0.020 0.020 0.044 0.036 0.056 0 0.017 0 0.027 0 0.036s0.007 0.015 0.024 0.015c0.016 0.016 0.028 0.029 0.035 0.046s0.020 0.022 0.036 0.022c0.014 0.020 0.031 0.033 0.048 0.051 0.016 0.016 0.034 0.022 0.050 0.022 0 0 0 0.005 0 0.012 0 0.009 0 0.016 0 0.016 0.031 0.015 0.597 0.305 1.703 0.87 1.104 0.567 2.31 1.191 3.627 1.867 1.317 0.678 2.525 1.302 3.628 1.869 1.105 0.567 1.672 0.857 1.703 0.871 0 0 0.005 0 0.011 0s0.019 0 0.036 0c0.014 0.017 0.035 0.033 0.057 0.037 0.023 0.009 0.052 0.014 0.081 0.014 0 0 0.006 0 0.013 0s0.011 0 0.011 0c0.031 0 0.059 0 0.083 0s0.052-0.009 0.081-0.025c0 0 0.005 0 0.013 0 0.007 0 0.009 0 0.009 0 0.017-0.016 0.033-0.025 0.048-0.025s0.033-0.005 0.050-0.022l10.181-6.237c0 0 0.005-0.005 0.014-0.014 0.009-0.007 0.020-0.012 0.037-0.012 0-0.016 0.007-0.027 0.025-0.035 0.016-0.009 0.029-0.022 0.049-0.036 0.016-0.019 0.027-0.027 0.035-0.036s0.011-0.021 0.011-0.037c0.019-0.019 0.022-0.027 0.022-0.036 0-0.007 0.009-0.012 0.028-0.012 0 0 0-0.005 0-0.014 0-0.007 0-0.019 0-0.035 0-0.014 0.005-0.032 0.009-0.050 0.009-0.015 0.014-0.030 0.014-0.047 0-0.019 0.005-0.032 0.012-0.049 0.011 0.008 0.007-0.007-0.010-0.023zM22.69 11.607c0-0.019 0-0.035 0-0.049 0-0.019 0-0.035 0-0.049s-0.005-0.035-0.011-0.050c-0.009-0.014-0.022-0.033-0.037-0.046 0 0 0-0.005 0-0.014s0-0.021 0-0.035c0 0-0.005-0.005-0.009-0.014-0.011-0.007-0.016-0.009-0.016-0.009-0.014-0.016-0.030-0.035-0.049-0.049-0.015-0.019-0.023-0.035-0.023-0.050-0.019 0-0.032-0.007-0.049-0.022-0.014-0.019-0.034-0.023-0.049-0.023 0 0-0.005-0.005-0.009-0.014-0.011-0.009-0.016-0.011-0.016-0.011l-2.713-1.386-6.684 4.090c-0.064 0.029-0.128 0.059-0.19 0.093-0.063 0.032-0.118 0.053-0.165 0.068l-0.095 0.028c-0.094 0.029-0.189 0.050-0.283 0.066s-0.196 0.025-0.307 0.025h-0.070l-0.119-0.025c-0.048 0-0.107-0.007-0.177-0.025-0.071-0.014-0.137-0.032-0.2-0.047h-0.048l-0.165-0.073c-0.030-0.014-0.283-0.145-0.755-0.385-0.473-0.247-1.063-0.549-1.773-0.911-0.709-0.365-1.485-0.76-2.327-1.199-0.843-0.431-1.66-0.853-2.446-1.259-0.725 0.453-1.348 0.839-1.87 1.157-0.52 0.313-0.827 0.503-0.921 0.565-0.031 0.017-0.065 0.039-0.106 0.069-0.040 0.035-0.065 0.071-0.083 0.12-0.030 0.049-0.050 0.099-0.059 0.151-0.007 0.058-0.002 0.115 0.012 0.18 0 0.032 0.005 0.058 0.011 0.080 0.008 0.025 0.020 0.049 0.036 0.083 0 0 0 0.005 0 0.012 0 0.009 0.007 0.014 0.024 0.014 0.017 0.014 0.028 0.032 0.035 0.049 0.008 0.016 0.020 0.029 0.036 0.046 0.014 0 0.034 0.012 0.048 0.025 0.016 0.019 0.031 0.032 0.047 0.049 0.032 0.017 0.597 0.307 1.703 0.874 1.101 0.567 2.311 1.188 3.627 1.867 1.317 0.68 2.525 1.3 3.629 1.866s1.671 0.857 1.702 0.877c0 0 0.005 0 0.011 0s0.019 0.007 0.036 0.020c0.014 0 0.035 0.005 0.056 0.015 0.023 0.007 0.052 0.011 0.083 0.011 0 0 0.005 0 0.011 0s0.012 0 0.012 0c0.031 0 0.058 0 0.082 0s0.052-0.007 0.081-0.025c0 0 0.006 0 0.013 0s0.012 0 0.012 0c0.016-0.014 0.031-0.020 0.047-0.020s0.034-0.009 0.050-0.023l10.181-6.219c0-0.014 0.005-0.028 0.014-0.035 0.010-0.009 0.023-0.014 0.037-0.014 0-0.016 0.007-0.025 0.025-0.035 0.016-0.009 0.030-0.021 0.049-0.037 0.016 0 0.027-0.009 0.035-0.022 0.007-0.019 0.011-0.033 0.011-0.050 0.019-0.017 0.022-0.023 0.022-0.023s0.010-0.009 0.028-0.025c0 0 0-0.005 0-0.011 0-0.009 0-0.019 0-0.037 0-0.017 0.005-0.033 0.011-0.046 0.007-0.019 0.012-0.033 0.012-0.050 0-0.014 0.005-0.033 0.012-0.049 0.004-0.002-0.001-0.019-0.018-0.032zM22.69 5.957c0-0.016 0-0.033 0-0.048s0-0.034 0-0.047c0-0.016-0.005-0.033-0.011-0.047-0.009-0.017-0.022-0.033-0.037-0.048 0 0 0-0.005 0-0.011 0-0.009 0-0.021 0-0.038 0 0-0.005-0.003-0.009-0.012-0.011-0.007-0.016-0.011-0.016-0.011-0.014-0.018-0.030-0.034-0.049-0.047-0.013-0.017-0.022-0.024-0.022-0.024-0.019-0.016-0.032-0.027-0.049-0.035-0.014-0.008-0.034-0.020-0.049-0.036 0 0-0.005-0.002-0.009-0.011-0.011-0.007-0.016-0.012-0.016-0.012l-10.609-5.483c-0.017 0-0.029 0-0.036 0s-0.020 0-0.036 0c-0.016-0.016-0.034-0.023-0.048-0.023-0.016 0-0.030 0-0.047 0-0.017-0.014-0.033-0.023-0.048-0.023s-0.030 0-0.047 0c-0.016 0-0.033 0-0.048 0s-0.022 0-0.022 0c-0.034 0.016-0.057 0.029-0.072 0.036s-0.039 0.011-0.070 0.011c0 0-0.002 0.003-0.009 0.012-0.009 0.007-0.011 0.011-0.011 0.011-0.031 0.018-0.56 0.336-1.585 0.958s-2.15 1.311-3.379 2.065c-1.23 0.757-2.376 1.461-3.439 2.115-1.066 0.654-1.667 1.020-1.809 1.098-0.031 0.017-0.065 0.040-0.106 0.071s-0.067 0.070-0.083 0.118c-0.031 0.047-0.050 0.097-0.059 0.151s-0.002 0.113 0.012 0.177c0 0.030 0.005 0.059 0.011 0.082s0.020 0.051 0.036 0.082c0 0 0 0.002 0 0.012s0.007 0.012 0.024 0.012c0 0 0 0.005 0 0.012 0 0.009 0 0.011 0 0.011 0.016 0.016 0.028 0.029 0.035 0.038 0.007 0.007 0.020 0.019 0.038 0.036 0.013 0.016 0.031 0.027 0.047 0.035s0.031 0.020 0.047 0.036c0.034 0.014 0.599 0.306 1.703 0.873 1.101 0.567 2.31 1.189 3.627 1.867s2.525 1.301 3.628 1.867 1.672 0.859 1.703 0.876c0 0.014 0.005 0.022 0.011 0.022s0.019 0 0.036 0c0.014 0 0.035 0.005 0.058 0.014 0.023 0.005 0.050 0.009 0.083 0.009 0 0 0.005 0 0.011 0s0.011 0 0.011 0c0.032 0 0.059 0 0.083 0s0.052-0.009 0.082-0.022c0 0 0.005 0 0.012 0s0.011 0 0.011 0c0.017 0 0.030-0.005 0.048-0.014 0.016-0.005 0.034-0.019 0.050-0.035l10.184-6.214c0-0.018 0.005-0.024 0.014-0.024 0.006 0 0.021-0.007 0.035-0.023 0 0 0.007-0.007 0.025-0.024 0.014-0.014 0.033-0.022 0.047-0.022 0.019-0.018 0.030-0.031 0.036-0.048 0.007-0.015 0.012-0.034 0.012-0.047 0.016 0 0.024-0.005 0.024-0.011 0-0.010 0.010-0.022 0.023-0.036 0 0 0-0.005 0-0.011s0-0.013 0-0.013c0-0.030 0.005-0.054 0.014-0.070 0.007-0.016 0.011-0.034 0.011-0.047 0-0.017 0.006-0.034 0.012-0.048 0.005-0.011 0-0.028-0.017-0.042z"></path>
</svg>
