<!-- Generated by IcoMoon.io -->
<svg version="1.1" xmlns="http://www.w3.org/2000/svg" width="24" height="24" viewBox="0 0 24 24">
<title>resize</title>
<path d="M20.047 6.453l-5.547 5.547 5.547 5.547 2.25-2.25c0.302-0.323 0.667-0.396 1.094-0.219 0.406 0.177 0.609 0.484 0.609 0.922v7c0 0.271-0.099 0.505-0.297 0.703s-0.432 0.297-0.703 0.297h-7c-0.438 0-0.745-0.208-0.922-0.625-0.177-0.406-0.104-0.766 0.219-1.078l2.25-2.25-5.547-5.547-5.547 5.547 2.25 2.25c0.323 0.312 0.396 0.672 0.219 1.078-0.177 0.417-0.484 0.625-0.922 0.625h-7c-0.271 0-0.505-0.099-0.703-0.297s-0.297-0.432-0.297-0.703v-7c0-0.438 0.208-0.745 0.625-0.922 0.406-0.177 0.766-0.104 1.078 0.219l2.25 2.25 5.547-5.547-5.547-5.547-2.25 2.25c-0.198 0.198-0.432 0.297-0.703 0.297-0.125 0-0.25-0.026-0.375-0.078-0.417-0.177-0.625-0.484-0.625-0.922v-7c0-0.271 0.099-0.505 0.297-0.703s0.432-0.297 0.703-0.297h7c0.438 0 0.745 0.208 0.922 0.625 0.177 0.406 0.104 0.766-0.219 1.078l-2.25 2.25 5.547 5.547 5.547-5.547-2.25-2.25c-0.323-0.312-0.396-0.672-0.219-1.078 0.177-0.417 0.484-0.625 0.922-0.625h7c0.271 0 0.505 0.099 0.703 0.297s0.297 0.432 0.297 0.703v7c0 0.438-0.203 0.745-0.609 0.922-0.135 0.052-0.266 0.078-0.391 0.078-0.271 0-0.505-0.099-0.703-0.297l-2.25-2.25z"></path>
</svg>
