<!-- Generated by IcoMoon.io -->
<svg version="1.1" xmlns="http://www.w3.org/2000/svg" width="24" height="24" viewBox="0 0 24 24">
<title>ruler</title>
<path d="M17.099 0.526l-16.573 16.574c-0.701 0.701-0.701 1.845 0.002 2.549l3.822 3.824c0.701 0.701 1.849 0.703 2.549 0.002l16.576-16.574c0.701-0.702 0.701-1.849 0-2.55l-3.823-3.825c-0.704-0.703-1.85-0.7-2.552 0zM4.715 18.374l-0.911 0.911-2.275-2.276 0.911-0.911 2.275 2.276zM8.358 18.374l-0.911 0.911-4.098-4.098 0.911-0.912 4.098 4.099zM8.358 14.731l-0.911 0.911-2.278-2.275 0.912-0.912 2.276 2.276zM10.179 12.909l-0.911 0.911-2.275-2.275 0.911-0.912 2.275 2.276zM13.821 12.909l-0.911 0.911-4.097-4.097 0.911-0.911 4.097 4.097zM13.821 9.267l-0.911 0.911-2.275-2.275 0.911-0.911 2.275 2.275zM15.643 7.447l-0.911 0.911-2.276-2.276 0.911-0.911 2.276 2.276zM19.286 7.447l-0.912 0.911-4.097-4.098 0.911-0.912 4.098 4.099zM19.285 3.805l-0.911 0.911-2.275-2.277 0.911-0.91 2.275 2.276z"></path>
</svg>
