<!-- Generated by IcoMoon.io -->
<svg version="1.1" xmlns="http://www.w3.org/2000/svg" width="24" height="24" viewBox="0 0 24 24">
<title>search</title>
<path d="M16.615 10.154c0-1.779-0.632-3.3-1.897-4.565s-2.786-1.897-4.565-1.897c-1.779 0-3.3 0.632-4.565 1.897s-1.897 2.786-1.897 4.565c0 1.779 0.632 3.3 1.897 4.565s2.786 1.897 4.565 1.897c1.779 0 3.3-0.632 4.565-1.897s1.897-2.786 1.897-4.565zM24 22.154c0 0.5-0.183 0.933-0.548 1.298s-0.798 0.548-1.298 0.548c-0.519 0-0.952-0.183-1.298-0.548l-4.947-4.933c-1.721 1.192-3.639 1.788-5.755 1.788-1.375 0-2.69-0.267-3.945-0.8s-2.337-1.255-3.245-2.163c-0.909-0.909-1.63-1.99-2.163-3.245s-0.8-2.57-0.8-3.945c0-1.375 0.267-2.69 0.8-3.945s1.255-2.337 2.163-3.245c0.909-0.909 1.99-1.63 3.245-2.163s2.57-0.8 3.945-0.8c1.375 0 2.69 0.267 3.945 0.8s2.337 1.255 3.245 2.163c0.909 0.909 1.63 1.99 2.163 3.245s0.8 2.57 0.8 3.945c0 2.115-0.596 4.034-1.788 5.755l4.947 4.947c0.356 0.356 0.534 0.788 0.534 1.298z"></path>
</svg>
