<!-- Generated by IcoMoon.io -->
<svg version="1.1" xmlns="http://www.w3.org/2000/svg" width="24" height="24" viewBox="0 0 24 24">
<title>settings</title>
<path d="M4.546 13.351v-12.261c0-0.312-0.126-0.572-0.377-0.779s-0.559-0.311-0.922-0.311c-0.363 0-0.676 0.104-0.935 0.312s-0.389 0.467-0.389 0.778v12.182c-0.572 0.242-1.035 0.628-1.389 1.156s-0.533 1.113-0.533 1.754c0 0.658 0.177 1.247 0.533 1.766s0.818 0.901 1.389 1.143v3.819c0 0.294 0.129 0.55 0.389 0.766s0.572 0.324 0.935 0.324c0.363 0 0.671-0.108 0.922-0.324s0.377-0.472 0.377-0.766v-3.87c0.536-0.26 0.97-0.645 1.299-1.156s0.494-1.078 0.494-1.701c0-0.623-0.165-1.186-0.494-1.688s-0.762-0.883-1.299-1.143zM3.169 17.897c-0.467 0-0.866-0.165-1.195-0.494s-0.493-0.719-0.493-1.169c0-0.467 0.165-0.866 0.494-1.195s0.727-0.494 1.195-0.494c0.468 0 0.862 0.165 1.182 0.494s0.481 0.727 0.481 1.195c0 0.45-0.16 0.84-0.481 1.169s-0.715 0.494-1.183 0.494zM13.039 5.454v-4.364c0-0.312-0.129-0.572-0.389-0.779s-0.563-0.311-0.91-0.311c-0.363 0-0.676 0.104-0.935 0.312s-0.389 0.467-0.389 0.779v4.364c-0.554 0.242-1.005 0.623-1.35 1.143s-0.52 1.099-0.52 1.74c0 0.641 0.173 1.216 0.52 1.727s0.796 0.896 1.35 1.156v11.688c0 0.294 0.129 0.55 0.389 0.766s0.572 0.324 0.935 0.324c0.347 0 0.649-0.108 0.909-0.324s0.389-0.472 0.389-0.766v-11.715c0.536-0.242 0.979-0.623 1.325-1.143s0.52-1.091 0.52-1.715c0-0.641-0.173-1.216-0.52-1.727s-0.787-0.896-1.324-1.156zM11.715 10.078c-0.467 0-0.866-0.165-1.195-0.494s-0.493-0.718-0.493-1.169c0-0.467 0.165-0.866 0.494-1.195s0.727-0.494 1.195-0.494c0.468 0 0.862 0.165 1.182 0.494s0.481 0.727 0.481 1.195c0 0.45-0.16 0.84-0.481 1.169s-0.715 0.494-1.183 0.494zM21.039 13.325v-12.234c0-0.312-0.126-0.572-0.377-0.779s-0.558-0.311-0.921-0.311c-0.363 0-0.676 0.104-0.935 0.312s-0.389 0.467-0.389 0.779v12.207c-0.554 0.242-1.009 0.623-1.364 1.143s-0.533 1.099-0.533 1.74c0 0.658 0.177 1.247 0.533 1.766s0.809 0.901 1.364 1.143v3.819c0 0.294 0.129 0.55 0.389 0.766s0.572 0.324 0.935 0.324c0.363 0 0.671-0.108 0.922-0.324s0.377-0.472 0.377-0.766v-3.87c0.536-0.242 0.974-0.619 1.311-1.13s0.506-1.087 0.506-1.727c0-0.623-0.168-1.191-0.506-1.701s-0.775-0.897-1.312-1.157zM19.689 17.897c-0.467 0-0.862-0.165-1.182-0.494s-0.481-0.719-0.481-1.169c0-0.467 0.16-0.866 0.481-1.195s0.715-0.494 1.182-0.494c0.467 0 0.866 0.165 1.195 0.494s0.494 0.727 0.494 1.195c0 0.45-0.165 0.84-0.494 1.169s-0.728 0.494-1.195 0.494z"></path>
</svg>
