<!-- Generated by IcoMoon.io -->
<svg version="1.1" xmlns="http://www.w3.org/2000/svg" width="24" height="24" viewBox="0 0 24 24">
<title>share</title>
<path d="M19.608 16.976c-0.993 0-1.889 0.356-2.568 0.928l-9.315-5.007c0.072-0.272 0.118-0.555 0.118-0.844s-0.045-0.571-0.118-0.843l9.216-4.958c0.7 0.603 1.635 0.976 2.667 0.976 2.163 0 3.922-1.621 3.922-3.614s-1.758-3.614-3.922-3.614c-2.163 0-3.922 1.621-3.922 3.614 0 0.289 0.045 0.573 0.118 0.843l-9.216 4.958c-0.7-0.601-1.635-0.976-2.667-0.976-2.163 0-3.922 1.621-3.922 3.614s1.758 3.614 3.922 3.614c1.032 0 1.967-0.373 2.667-0.976l9.315 5.007c-0.066 0.253-0.105 0.518-0.105 0.789 0 1.94 1.705 3.512 3.81 3.512s3.81-1.573 3.81-3.512c0-1.939-1.705-3.512-3.81-3.512z"></path>
</svg>
