<!-- Generated by IcoMoon.io -->
<svg version="1.1" xmlns="http://www.w3.org/2000/svg" width="24" height="24" viewBox="0 0 24 24">
<title>source-data</title>
<path d="M23.027 0h-23.027v23.975h24v-23.975h-0.973zM11.701 2.794c0.166-0.067 0.341-0.121 0.524-0.162s0.366-0.062 0.549-0.062c0.1 0 0.195 0.008 0.287 0.025s0.179 0.033 0.262 0.050c0.1 0.017 0.191 0.033 0.274 0.050s0.175 0.042 0.274 0.075c0.183 0.050 0.362 0.104 0.536 0.162s0.345 0.112 0.511 0.162c0.1 0.033 0.191 0.067 0.274 0.1s0.166 0.058 0.249 0.075c0.083 0.033 0.166 0.071 0.249 0.112s0.166 0.079 0.249 0.112c0.166 0.083 0.328 0.17 0.486 0.262s0.32 0.179 0.486 0.262c0.083 0.050 0.166 0.096 0.249 0.137s0.166 0.087 0.249 0.137c0.033 0.017 0.071 0.037 0.112 0.062s0.079 0.046 0.112 0.062c0.050 0.017 0.087 0.042 0.112 0.075s0.054 0.067 0.087 0.1c0.050 0.067 0.1 0.137 0.15 0.212s0.108 0.146 0.175 0.212c0.050 0.083 0.104 0.154 0.162 0.212s0.121 0.112 0.187 0.162c0.067 0.067 0.137 0.121 0.212 0.162s0.146 0.087 0.212 0.137c0.050 0.017 0.091 0.037 0.125 0.062s0.075 0.046 0.125 0.062c0.033 0.033 0.071 0.062 0.112 0.087s0.079 0.046 0.112 0.062c0.083 0.050 0.162 0.104 0.237 0.162s0.154 0.112 0.237 0.162c0.033 0.017 0.071 0.037 0.112 0.062s0.079 0.054 0.112 0.087c0.033 0.033 0.071 0.062 0.112 0.087s0.079 0.046 0.112 0.062c0.083 0.050 0.158 0.104 0.225 0.162s0.133 0.112 0.2 0.162c0.083 0.050 0.166 0.091 0.249 0.125s0.166 0.058 0.249 0.075c0.050 0.017 0.096 0.029 0.137 0.037s0.087 0.021 0.137 0.037c0.017 0 0.037 0.004 0.062 0.012s0.046 0.012 0.062 0.012c0.017 0 0.029 0.004 0.037 0.012s0.012 0.012 0.012 0.012c0 0 0.004 0 0.012 0s0.012 0 0.012 0c0 0 0 0 0 0 0 0.2 0 0.391 0 0.574s0 0.366 0 0.549c0 0.2 0 0.391 0 0.574s0 0.374 0 0.574c0 0.1 0 0.195 0 0.287s0 0.187 0 0.287c-0.183-0.067-0.366-0.125-0.549-0.175s-0.358-0.1-0.524-0.15c-0.183-0.050-0.366-0.1-0.549-0.15s-0.366-0.1-0.549-0.15c-0.1-0.017-0.191-0.037-0.274-0.062s-0.175-0.046-0.274-0.062c0 0 0 0 0 0 0.333 0.067 0.395 0.067 0.187 0s-0.279-0.067-0.212 0c0-0.017-0.004-0.025-0.012-0.025s-0.012 0-0.012 0c-0.017-0.017-0.029-0.025-0.037-0.025s-0.021-0.008-0.037-0.025c-0.017 0-0.033-0.008-0.050-0.025s-0.033-0.025-0.050-0.025c-0.050-0.033-0.091-0.058-0.125-0.075s-0.075-0.033-0.125-0.050c-0.033-0.017-0.071-0.033-0.112-0.050s-0.079-0.033-0.112-0.050c-0.033-0.033-0.071-0.062-0.112-0.087s-0.079-0.046-0.112-0.062c-0.067-0.067-0.129-0.133-0.187-0.2s-0.121-0.133-0.187-0.2c-0.116-0.15-0.237-0.291-0.362-0.424s-0.262-0.266-0.412-0.399c-0.133-0.133-0.266-0.258-0.399-0.374s-0.266-0.241-0.399-0.374c-0.133-0.133-0.258-0.262-0.374-0.387s-0.241-0.245-0.374-0.362c-0.067-0.050-0.137-0.1-0.212-0.15s-0.146-0.1-0.212-0.15c-0.083-0.033-0.162-0.071-0.237-0.112s-0.154-0.087-0.237-0.137c-0.083-0.050-0.162-0.1-0.237-0.15s-0.154-0.1-0.237-0.15c-0.033-0.017-0.067-0.037-0.1-0.062s-0.075-0.046-0.125-0.062c-0.033-0.033-0.067-0.062-0.1-0.087s-0.067-0.046-0.1-0.062c-0.033-0.033-0.071-0.058-0.112-0.075s-0.079-0.033-0.112-0.050c-0.050-0.017-0.096-0.033-0.137-0.050s-0.079-0.025-0.112-0.025c-0.1-0.033-0.195-0.050-0.287-0.050s-0.179 0-0.262 0c-0.050-0.017-0.1-0.025-0.15-0.025s-0.091 0-0.125 0c-0.050 0-0.1-0.004-0.15-0.012s-0.091-0.012-0.125-0.012c-0.050 0-0.1 0-0.15 0s-0.091 0-0.125 0c-0.050 0.017-0.096 0.033-0.137 0.050s-0.079 0.033-0.112 0.050c-0.166 0.083-0.337 0.162-0.511 0.237s-0.345 0.146-0.511 0.212c-0.183 0.083-0.362 0.158-0.536 0.225s-0.345 0.141-0.511 0.225c-0.183 0.067-0.362 0.137-0.536 0.212s-0.345 0.146-0.511 0.212c-0.083 0.033-0.166 0.071-0.249 0.112s-0.166 0.071-0.249 0.087c-0.050 0.017-0.096 0.033-0.137 0.050s-0.079 0.033-0.112 0.050c-0.050 0-0.096 0.004-0.137 0.012s-0.087 0.021-0.137 0.037c-0.183 0.033-0.366 0.071-0.549 0.112s-0.374 0.087-0.574 0.137c-0.183 0.033-0.366 0.071-0.549 0.112s-0.366 0.087-0.549 0.137c-0.183 0.033-0.366 0.071-0.549 0.112s-0.366 0.079-0.549 0.112c-0.2 0.050-0.391 0.091-0.574 0.125s-0.366 0.075-0.549 0.125c-0.067 0-0.129 0.008-0.187 0.025s-0.121 0.025-0.187 0.025c0-0.183 0-0.37 0-0.561s0-0.378 0-0.561c0-0.017 0-0.029 0-0.037s0-0.021 0-0.037c0 0 0-0.004 0-0.012s0-0.012 0-0.012c0 0 0.008 0 0.025 0 0 0 0.008 0 0.025 0s0.033-0.008 0.050-0.025c0.033 0 0.075-0.008 0.125-0.025s0.091-0.033 0.125-0.050c0.1-0.017 0.191-0.042 0.274-0.075s0.175-0.067 0.274-0.1c0.083-0.033 0.17-0.062 0.262-0.087s0.179-0.054 0.262-0.087c0.1-0.017 0.191-0.037 0.274-0.062s0.175-0.054 0.274-0.087c0.166-0.050 0.341-0.104 0.524-0.162s0.366-0.112 0.549-0.162c0.166-0.050 0.341-0.1 0.524-0.15s0.366-0.1 0.549-0.15c0.183-0.050 0.362-0.104 0.536-0.162s0.345-0.129 0.511-0.212c0.166-0.067 0.333-0.146 0.499-0.237s0.324-0.187 0.474-0.287c0.166-0.083 0.328-0.175 0.486-0.274s0.312-0.191 0.462-0.274c0.166-0.1 0.328-0.191 0.486-0.274s0.328-0.15 0.511-0.2c0.033-0.017 0.075-0.033 0.125-0.050s0.091-0.025 0.125-0.025c0.050-0.017 0.1-0.033 0.15-0.050s0.091-0.033 0.125-0.050c0.1-0.017 0.191-0.042 0.274-0.075s0.175-0.058 0.274-0.075v0zM19.834 17.389c0.017 0.033 0.033 0.058 0.050 0.075s0.025 0.033 0.025 0.050c0 0 0 0 0 0s0-0.004 0-0.012c0-0.008 0-0.012 0-0.012-0.116-0.15-0.225-0.299-0.324-0.449s-0.191-0.299-0.274-0.449c-0.1-0.15-0.2-0.308-0.299-0.474s-0.2-0.324-0.299-0.474c-0.083-0.166-0.175-0.333-0.274-0.499s-0.2-0.324-0.299-0.474c-0.083-0.166-0.17-0.328-0.262-0.486s-0.187-0.32-0.287-0.486c-0.1-0.15-0.2-0.299-0.299-0.449s-0.208-0.291-0.324-0.424c-0.050-0.067-0.108-0.133-0.175-0.2s-0.125-0.141-0.175-0.225c-0.050-0.067-0.104-0.137-0.162-0.212s-0.112-0.154-0.162-0.237c-0.067-0.067-0.125-0.137-0.175-0.212s-0.108-0.146-0.175-0.212c-0.050-0.067-0.108-0.129-0.175-0.187s-0.133-0.112-0.2-0.162c-0.067-0.067-0.137-0.125-0.212-0.175s-0.146-0.108-0.212-0.175c-0.083-0.050-0.158-0.108-0.225-0.175s-0.133-0.125-0.2-0.175c-0.033-0.033-0.062-0.062-0.087-0.087s-0.054-0.054-0.087-0.087c-0.050-0.017-0.091-0.037-0.125-0.062s-0.067-0.046-0.1-0.062c-0.083-0.033-0.17-0.058-0.262-0.075s-0.179-0.025-0.262-0.025c-0.050-0.017-0.096-0.029-0.137-0.037s-0.087-0.012-0.137-0.012c-0.050-0.017-0.096-0.029-0.137-0.037s-0.087-0.021-0.137-0.037c-0.1-0.017-0.195-0.033-0.287-0.050s-0.179-0.025-0.262-0.025c-0.183-0.033-0.37-0.050-0.561-0.050s-0.378-0.008-0.561-0.025c-0.1 0-0.195-0.004-0.287-0.012s-0.179-0.021-0.262-0.037c-0.050 0-0.1-0.004-0.15-0.012s-0.091-0.021-0.125-0.037c-0.050 0-0.1-0.004-0.15-0.012s-0.1-0.012-0.15-0.012c-0.183-0.017-0.366-0.021-0.549-0.012s-0.374 0.021-0.574 0.037c-0.033 0.017-0.075 0.025-0.125 0.025s-0.1 0.008-0.15 0.025c-0.050 0-0.096 0-0.137 0s-0.087-0.008-0.137-0.025c-0.1 0-0.195 0.004-0.287 0.012s-0.179 0.021-0.262 0.037c-0.083 0.017-0.17 0.037-0.262 0.062s-0.179 0.054-0.262 0.087c-0.050 0.017-0.096 0.029-0.137 0.037s-0.087 0.012-0.137 0.012c-0.050 0.017-0.096 0.029-0.137 0.037s-0.087 0.012-0.137 0.012c-0.083 0.017-0.17 0.037-0.262 0.062s-0.187 0.046-0.287 0.062c-0.083 0.017-0.17 0.037-0.262 0.062s-0.179 0.054-0.262 0.087c-0.183 0.050-0.366 0.1-0.549 0.15s-0.366 0.1-0.549 0.15c-0.083 0.033-0.17 0.062-0.262 0.087s-0.179 0.054-0.262 0.087c-0.1 0.033-0.191 0.062-0.274 0.087s-0.175 0.054-0.274 0.087c-0.083 0.033-0.166 0.067-0.249 0.1s-0.175 0.067-0.274 0.1c-0.033 0.017-0.071 0.033-0.112 0.050s-0.087 0.033-0.137 0.050c-0.050 0.017-0.096 0.029-0.137 0.037s-0.087 0.021-0.137 0.037c-0.017 0-0.037 0-0.062 0s-0.054 0-0.087 0c-0.033 0-0.062 0-0.087 0s-0.054 0-0.087 0c0-0.183 0-0.37 0-0.561s0-0.378 0-0.561c0-0.2 0-0.391 0-0.574s0-0.374 0-0.574c0-0.017 0-0.037 0-0.062s0-0.046 0-0.062c0-0.017 0-0.025 0-0.025s0.008 0 0.025 0c0 0 0.004 0 0.012 0s0.012 0 0.012 0c0.050-0.017 0.091-0.029 0.125-0.037s0.075-0.012 0.125-0.012c0.083-0.017 0.175-0.033 0.274-0.050s0.191-0.033 0.274-0.050c0.183-0.050 0.366-0.091 0.549-0.125s0.374-0.075 0.574-0.125c0.183-0.033 0.366-0.071 0.549-0.112s0.366-0.079 0.549-0.112c0.183-0.050 0.366-0.096 0.549-0.137s0.366-0.079 0.549-0.112c0.050-0.017 0.1-0.029 0.15-0.037s0.1-0.021 0.15-0.037c0.033-0.017 0.075-0.029 0.125-0.037s0.091-0.021 0.125-0.037c0.1-0.017 0.195-0.029 0.287-0.037s0.179-0.029 0.262-0.062c0.1-0.017 0.191-0.033 0.274-0.050s0.175-0.042 0.274-0.075c0.083-0.033 0.166-0.067 0.249-0.1s0.166-0.067 0.249-0.1c0.083-0.050 0.166-0.096 0.249-0.137s0.166-0.079 0.249-0.112c0.083-0.033 0.166-0.071 0.249-0.112s0.175-0.079 0.274-0.112c0.166-0.083 0.337-0.162 0.511-0.237s0.345-0.146 0.511-0.212c0.1-0.050 0.191-0.091 0.274-0.125s0.166-0.075 0.249-0.125c0.083-0.033 0.166-0.071 0.249-0.112s0.166-0.079 0.249-0.112c0.017 0 0.029-0.004 0.037-0.012s0.012-0.012 0.012-0.012c0.017 0 0.029 0 0.037 0s0.012 0.008 0.012 0.025c0.033 0 0.058 0.004 0.075 0.012s0.042 0.012 0.075 0.012c0.033 0 0.075 0 0.125 0s0.091 0.008 0.125 0.025c0.050 0 0.1 0 0.15 0s0.091 0 0.125 0c0.033 0 0.058 0 0.075 0s0.042 0.008 0.075 0.025c0.017 0 0.033 0.008 0.050 0.025s0.033 0.025 0.050 0.025c0.083 0.050 0.158 0.104 0.225 0.162s0.141 0.112 0.225 0.162c0.083 0.033 0.166 0.075 0.249 0.125s0.158 0.1 0.225 0.15c0.050 0.033 0.091 0.062 0.125 0.087s0.075 0.046 0.125 0.062c0.033 0.017 0.071 0.037 0.112 0.062s0.079 0.046 0.112 0.062c0.050 0.033 0.091 0.062 0.125 0.087s0.067 0.046 0.1 0.062c0.033 0.033 0.067 0.067 0.1 0.1s0.067 0.067 0.1 0.1c0.050 0.067 0.108 0.133 0.175 0.2s0.133 0.133 0.2 0.2c0.067 0.050 0.137 0.108 0.212 0.175s0.146 0.133 0.212 0.2c0.133 0.116 0.266 0.241 0.399 0.374s0.258 0.266 0.374 0.399c0.133 0.133 0.258 0.27 0.374 0.412s0.241 0.27 0.374 0.387c0.067 0.067 0.133 0.129 0.2 0.187s0.141 0.104 0.225 0.137c0.067 0.050 0.141 0.096 0.225 0.137s0.158 0.079 0.225 0.112c0.083 0.050 0.166 0.096 0.249 0.137s0.166 0.079 0.249 0.112c0.083 0.033 0.166 0.067 0.249 0.1s0.166 0.058 0.249 0.075c0.183 0.050 0.366 0.096 0.549 0.137s0.366 0.087 0.549 0.137c0.050 0.017 0.096 0.033 0.137 0.050s0.087 0.025 0.137 0.025c0.033 0.017 0.075 0.033 0.125 0.050s0.091 0.025 0.125 0.025c0.1 0.017 0.195 0.037 0.287 0.062s0.179 0.046 0.262 0.062c0.067 0.017 0.129 0.037 0.187 0.062s0.121 0.046 0.187 0.062c0.033 0 0.062 0.004 0.087 0.012s0.046 0.021 0.062 0.037c0.017 0 0.029 0 0.037 0s0.012 0 0.012 0c0 0 0.004 0 0.012 0s0.012 0.008 0.012 0.025c0 0 0 0 0 0 0 0.183 0 0.366 0 0.549s0 0.374 0 0.574c0 0.183 0 0.37 0 0.561s0 0.378 0 0.561c0 0.2 0 0.391 0 0.574s0 0.374 0 0.574c0 0.183 0 0.37 0 0.561s0 0.378 0 0.561c0 0.183 0 0.37 0 0.561s0 0.378 0 0.561c0 0.2 0 0.391 0 0.574s0 0.374 0 0.574c0 0.050 0 0.1 0 0.15s0 0.1 0 0.15c-0.083-0.033-0.166-0.071-0.249-0.112s-0.166-0.079-0.249-0.112c-0.083-0.017-0.166-0.042-0.249-0.075s-0.166-0.067-0.249-0.1c-0.033-0.033-0.067-0.062-0.1-0.087s-0.067-0.046-0.1-0.062c-0.033-0.033-0.071-0.067-0.112-0.1s-0.079-0.067-0.112-0.1c-0.033-0.033-0.067-0.062-0.1-0.087s-0.067-0.054-0.1-0.087c-0.017-0.017-0.033-0.029-0.050-0.037s-0.033-0.021-0.050-0.037c-0.017-0.017-0.029-0.029-0.037-0.037s-0.021-0.012-0.037-0.012c0 0 0 0 0 0 0.083 0.050 0.050-0.012-0.1-0.187s-0.15-0.162 0 0.037v0zM1.971 1.946h8.058c0 0-0.004 0-0.012 0s-0.004 0 0.012 0c-0.166 0.067-0.324 0.137-0.474 0.212s-0.308 0.154-0.474 0.237c-0.15 0.1-0.304 0.195-0.462 0.287s-0.32 0.187-0.486 0.287c-0.083 0.050-0.162 0.096-0.237 0.137s-0.154 0.087-0.237 0.137c-0.083 0.050-0.162 0.091-0.237 0.125s-0.154 0.067-0.237 0.1c-0.166 0.083-0.337 0.154-0.511 0.212s-0.353 0.112-0.536 0.162c-0.083 0.033-0.17 0.058-0.262 0.075s-0.179 0.042-0.262 0.075c-0.1 0.017-0.191 0.037-0.274 0.062s-0.175 0.054-0.274 0.087c-0.183 0.050-0.362 0.104-0.536 0.162s-0.353 0.112-0.536 0.162c-0.083 0.017-0.17 0.037-0.262 0.062s-0.179 0.054-0.262 0.087c-0.1 0.033-0.191 0.062-0.274 0.087s-0.175 0.054-0.274 0.087c-0.083 0.033-0.17 0.062-0.262 0.087s-0.179 0.054-0.262 0.087c-0.083 0.017-0.158 0.033-0.225 0.050s-0.133 0.042-0.2 0.075v-3.143zM15.667 21.38c-0.033 0-0.058 0-0.075 0s-0.033 0-0.050 0-0.067 0-0.1 0c-0.033 0-0.058 0-0.075 0-0.050 0-0.096 0-0.137 0s-0.079 0-0.112 0c-0.050 0-0.104 0-0.162 0s-0.112 0-0.162 0c-0.050 0-0.104 0-0.162 0s-0.121 0-0.187 0c-0.067 0-0.133 0-0.2 0s-0.133 0-0.2 0c-0.083 0-0.162 0-0.237 0s-0.146 0-0.212 0c-0.083 0-0.166 0-0.249 0s-0.158 0-0.225 0c-0.083 0-0.17 0-0.262 0s-0.179 0-0.262 0c-0.083 0-0.17 0-0.262 0s-0.179 0-0.262 0c-0.1 0-0.195 0-0.287 0s-0.179 0-0.262 0c-0.1 0-0.195 0-0.287 0s-0.187 0-0.287 0c-0.1 0-0.195 0-0.287 0s-0.187 0-0.287 0c-0.083 0-0.175 0-0.274 0s-0.191 0-0.274 0c-0.1 0-0.195 0-0.287 0s-0.187 0-0.287 0c-0.1 0-0.195 0-0.287 0s-0.179 0-0.262 0c-0.1 0-0.191 0-0.274 0s-0.175 0-0.274 0c-0.083 0-0.166 0-0.249 0s-0.166 0-0.249 0c-0.083 0-0.166 0-0.249 0s-0.166 0-0.249 0c-0.067 0-0.137 0-0.212 0s-0.154 0-0.237 0c-0.067 0-0.133 0-0.2 0s-0.133 0-0.2 0c-0.067 0-0.129 0-0.187 0s-0.121 0-0.187 0c-0.050 0-0.1 0-0.15 0s-0.1 0-0.15 0c-0.050 0-0.096 0-0.137 0s-0.087 0-0.137 0c-0.033 0-0.062 0-0.087 0s-0.054 0-0.087 0c-0.033 0-0.058 0-0.075 0s-0.033 0-0.050 0c-0.017 0-0.029 0-0.037 0s-0.012 0-0.012 0c0 0 0-0.079 0-0.237s0-0.254 0-0.287c0-0.183 0.004-0.37 0.012-0.561s0.012-0.378 0.012-0.561c0-0.017 0-0.029 0-0.037s0-0.021 0-0.037c0-0.017 0-0.029 0-0.037s0-0.021 0-0.037c0.017-0.017 0.029-0.037 0.037-0.062s0.012-0.046 0.012-0.062c0.017-0.033 0.033-0.075 0.050-0.125s0.033-0.091 0.050-0.125c0-0.033 0.004-0.058 0.012-0.075s0.012-0.033 0.012-0.050c0.017-0.017 0.025-0.029 0.025-0.037s0-0.021 0-0.037c0.017 0 0.029-0.004 0.037-0.012s0.012-0.012 0.012-0.012c0.033-0.033 0.067-0.067 0.1-0.1s0.067-0.067 0.1-0.1 0.133-0.129 0.2-0.187c0.067-0.058 0.133-0.121 0.2-0.187 0.033-0.017 0.067-0.042 0.1-0.075s0.075-0.058 0.125-0.075c0.033-0.017 0.067-0.033 0.1-0.050s0.075-0.033 0.125-0.050c0.083-0.033 0.166-0.058 0.249-0.075s0.166-0.033 0.249-0.050c0.1-0.033 0.195-0.062 0.287-0.087s0.179-0.054 0.262-0.087c0.183-0.050 0.362-0.104 0.536-0.162s0.353-0.121 0.536-0.187c0.083-0.033 0.17-0.062 0.262-0.087s0.179-0.054 0.262-0.087c0.050-0.017 0.096-0.033 0.137-0.050s0.087-0.042 0.137-0.075c0.033 0 0.071-0.008 0.112-0.025s0.087-0.033 0.137-0.050c0.083-0.017 0.17-0.029 0.262-0.037s0.187-0.021 0.287-0.037c0.083 0 0.17-0.004 0.262-0.012s0.187-0.012 0.287-0.012c0.183 0 0.366 0.012 0.549 0.037s0.358 0.071 0.524 0.137c0.166 0.050 0.328 0.112 0.486 0.187s0.312 0.162 0.462 0.262c0.083 0.050 0.158 0.1 0.225 0.15s0.133 0.1 0.2 0.15c0.067 0.067 0.133 0.133 0.2 0.2s0.125 0.133 0.175 0.2c0.067 0.067 0.129 0.137 0.187 0.212s0.112 0.146 0.162 0.212c0.067 0.083 0.129 0.162 0.187 0.237s0.112 0.146 0.162 0.212c0.116 0.15 0.229 0.299 0.337 0.449s0.22 0.299 0.337 0.449c0.116 0.15 0.229 0.304 0.337 0.462s0.22 0.312 0.337 0.462c0.033 0.050 0.071 0.104 0.112 0.162s0.079 0.112 0.112 0.162c0 0-0.004 0-0.012 0s-0.012 0-0.012 0v0zM17.464 21.38c-0.017 0-0.029 0-0.037 0s-0.021 0-0.037 0c0 0-0.004 0-0.012 0s-0.012 0-0.012 0c0 0 0 0 0 0s0 0 0 0 0 0 0 0 0-0.004 0-0.012c0-0.008 0-0.012 0-0.012s0 0 0 0 0 0 0 0c-0.067-0.067-0.125-0.141-0.175-0.225s-0.108-0.158-0.175-0.225c-0.1-0.15-0.208-0.304-0.324-0.462s-0.225-0.312-0.324-0.462c-0.116-0.15-0.229-0.299-0.337-0.449s-0.22-0.299-0.337-0.449c-0.116-0.166-0.233-0.32-0.349-0.462s-0.233-0.287-0.349-0.437c-0.050-0.083-0.104-0.162-0.162-0.237s-0.121-0.146-0.187-0.212c-0.017-0.033-0.042-0.067-0.075-0.1s-0.058-0.075-0.075-0.125c-0.033-0.033-0.062-0.067-0.087-0.1s-0.046-0.067-0.062-0.1c-0.033-0.033-0.062-0.067-0.087-0.1s-0.054-0.067-0.087-0.1c-0.033-0.033-0.067-0.062-0.1-0.087s-0.067-0.054-0.1-0.087c-0.067-0.050-0.137-0.096-0.212-0.137s-0.146-0.087-0.212-0.137c-0.083-0.067-0.158-0.125-0.225-0.175s-0.141-0.1-0.225-0.15c-0.067-0.050-0.141-0.096-0.225-0.137s-0.166-0.079-0.249-0.112c-0.166-0.067-0.333-0.133-0.499-0.2s-0.341-0.116-0.524-0.15c-0.183-0.050-0.366-0.079-0.549-0.087s-0.366-0.004-0.549 0.012c-0.1 0-0.195 0.008-0.287 0.025s-0.187 0.025-0.287 0.025c-0.083 0-0.17 0.004-0.262 0.012s-0.187 0.021-0.287 0.037c-0.083 0.017-0.17 0.037-0.262 0.062s-0.179 0.054-0.262 0.087c-0.083 0.033-0.166 0.067-0.249 0.1s-0.166 0.067-0.249 0.1c-0.183 0.067-0.366 0.125-0.549 0.175s-0.358 0.1-0.524 0.15c-0.1 0.033-0.195 0.062-0.287 0.087s-0.179 0.054-0.262 0.087c-0.1 0.033-0.191 0.062-0.274 0.087s-0.175 0.046-0.274 0.062c-0.083 0.033-0.17 0.062-0.262 0.087s-0.179 0.054-0.262 0.087c-0.083 0.033-0.162 0.071-0.237 0.112s-0.146 0.087-0.212 0.137c-0.067 0.067-0.133 0.129-0.2 0.187s-0.141 0.121-0.225 0.187c-0.033 0.033-0.062 0.062-0.087 0.087s-0.054 0.054-0.087 0.087c-0.033 0.033-0.067 0.067-0.1 0.1s-0.067 0.067-0.1 0.1c-0.033 0.033-0.062 0.067-0.087 0.1s-0.062 0.058-0.112 0.075c-0.017 0.017-0.033 0.033-0.050 0.050s-0.033 0.033-0.050 0.050c0 0-0.008 0-0.025 0 0 0.017 0 0.025 0 0.025 0 0.017 0 0.029 0 0.037s-0.008 0.021-0.025 0.037c-0.017 0.083-0.042 0.17-0.075 0.262s-0.075 0.179-0.125 0.262c-0.017 0.033-0.033 0.071-0.050 0.112s-0.033 0.087-0.050 0.137c-0.017 0.017-0.029 0.037-0.037 0.062s-0.012 0.046-0.012 0.062c0 0.017-0.004 0.029-0.012 0.037s-0.012 0.012-0.012 0.012c0 0.017 0 0.025 0 0.025s-0.008 0.008-0.025 0.025c0 0 0 0 0 0 0 0.017 0 0.029 0 0.037s0 0.021 0 0.037c0 0.017 0 0.029 0 0.037s0 0.021 0 0.037c0.017 0.017 0.025 0.037 0.025 0.062s0 0.054 0 0.087c0 0.033 0 0.075 0 0.125s0 0.1 0 0.15c0 0.183-0.004 0.37-0.012 0.561s-0.012 0.378-0.012 0.561c0 0.067-0.004 0.129-0.012 0.187s-0.004 0.121 0.012 0.187c-0.1 0-0.195 0-0.287 0s-0.187 0-0.287 0c-0.050 0-0.096 0-0.137 0s-0.087 0-0.137 0c-0.033 0-0.062 0-0.087 0s-0.046 0-0.062 0c0 0-0.004 0-0.012 0s-0.012 0-0.012 0c0-0.017 0-0.029 0-0.037s0-0.012 0-0.012c0-0.033-0.004-0.062-0.012-0.087s-0.012-0.054-0.012-0.087c0-0.017 0-0.033 0-0.050s0-0.033 0-0.050c0 0 0-0.004 0-0.012s-0.008-0.021-0.025-0.037c0 0 0-0.008 0-0.025s0-0.025 0-0.025c0 0 0 0 0 0s0 0 0 0 0 0 0 0 0 0 0 0c0.017-0.1 0.033-0.195 0.050-0.287s0.025-0.179 0.025-0.262c0.017-0.1 0.029-0.195 0.037-0.287s0.012-0.187 0.012-0.287c0.017-0.033 0.029-0.075 0.037-0.125s0.012-0.091 0.012-0.125c0.017-0.050 0.033-0.096 0.050-0.137s0.033-0.087 0.050-0.137c0.017-0.033 0.033-0.071 0.050-0.112s0.033-0.087 0.050-0.137c0.017-0.050 0.029-0.096 0.037-0.137s0.021-0.087 0.037-0.137c0.067-0.166 0.133-0.337 0.2-0.511s0.133-0.345 0.2-0.511c0.033-0.1 0.071-0.191 0.112-0.274s0.079-0.166 0.112-0.249c0.017-0.017 0.029-0.037 0.037-0.062s0.021-0.046 0.037-0.062c0 0 0-0.008 0-0.025s0.008-0.025 0.025-0.025c0-0.017 0.004-0.029 0.012-0.037s0.021-0.012 0.037-0.012c0.033-0.033 0.062-0.067 0.087-0.1s0.054-0.067 0.087-0.1c0.017-0.017 0.033-0.033 0.050-0.050s0.033-0.033 0.050-0.050c0 0 0.004-0.004 0.012-0.012s0.021-0.012 0.037-0.012c0-0.017 0.004-0.025 0.012-0.025s0.021 0 0.037 0c0.050-0.017 0.096-0.029 0.137-0.037s0.087-0.012 0.137-0.012c0.050-0.017 0.096-0.029 0.137-0.037s0.087-0.021 0.137-0.037c0.033 0 0.075-0.008 0.125-0.025s0.091-0.033 0.125-0.050c0.183-0.050 0.366-0.104 0.549-0.162s0.366-0.112 0.549-0.162c0.183-0.050 0.366-0.104 0.549-0.162s0.366-0.112 0.549-0.162c0.166-0.050 0.341-0.104 0.524-0.162s0.366-0.112 0.549-0.162c0.083-0.033 0.17-0.067 0.262-0.1s0.179-0.058 0.262-0.075c0.1-0.033 0.191-0.067 0.274-0.1s0.166-0.067 0.249-0.1c0.1-0.033 0.191-0.067 0.274-0.1s0.166-0.067 0.249-0.1c0.050-0.017 0.096-0.033 0.137-0.050s0.087-0.033 0.137-0.050c0.033-0.017 0.075-0.033 0.125-0.050s0.091-0.033 0.125-0.050c0.050-0.017 0.096-0.033 0.137-0.050s0.087-0.033 0.137-0.050c0.033-0.017 0.075-0.029 0.125-0.037s0.091-0.012 0.125-0.012c0.1 0 0.195 0 0.287 0s0.187 0.008 0.287 0.025c0.083 0 0.175 0.008 0.274 0.025s0.191 0.025 0.274 0.025c0.050 0.017 0.096 0.029 0.137 0.037s0.087 0.012 0.137 0.012c0.033 0 0.058 0 0.075 0s0.042 0 0.075 0c0 0 0.004 0 0.012 0s0.021 0 0.037 0c0.017 0.017 0.029 0.025 0.037 0.025s0.012 0.008 0.012 0.025c0.083 0.033 0.162 0.075 0.237 0.125s0.146 0.1 0.212 0.15c0.067 0.067 0.129 0.133 0.187 0.2s0.121 0.125 0.187 0.175c0.033 0.033 0.067 0.067 0.1 0.1s0.067 0.067 0.1 0.1c0.033 0.033 0.067 0.067 0.1 0.1s0.067 0.067 0.1 0.1c0.050 0.067 0.108 0.133 0.175 0.2s0.133 0.141 0.2 0.225c0.116 0.133 0.233 0.27 0.349 0.412s0.225 0.287 0.324 0.437c0.116 0.15 0.233 0.299 0.349 0.449s0.225 0.299 0.324 0.449c0.1 0.166 0.2 0.328 0.299 0.486s0.2 0.312 0.299 0.462c0.083 0.133 0.162 0.266 0.237 0.399s0.154 0.266 0.237 0.399c0.183 0.283 0.353 0.561 0.511 0.836s0.32 0.553 0.486 0.836c-0.017 0-0.033 0-0.050 0s-0.033 0-0.050 0h0.025zM21.73 21.331c0 0.017 0 0.025 0 0.025s0 0.008 0 0.025c0 0-0.004 0-0.012 0s-0.012 0-0.012 0c-0.017 0-0.029 0-0.037 0s-0.021 0-0.037 0c-0.1 0-0.195 0-0.287 0s-0.187 0-0.287 0c-0.183 0-0.37 0-0.561 0s-0.378 0-0.561 0c-0.1 0-0.195 0-0.287 0s-0.187 0-0.287 0c-0.017 0-0.037 0-0.062 0s-0.054 0-0.087 0c0 0-0.008 0-0.025 0s-0.025 0-0.025 0c-0.017 0-0.025 0-0.025 0s-0.008 0-0.025 0c0 0 0-0.004 0-0.012s0-0.012 0-0.012c-0.017-0.033-0.037-0.071-0.062-0.112s-0.054-0.087-0.087-0.137c-0.083-0.166-0.17-0.328-0.262-0.486s-0.187-0.32-0.287-0.486c-0.1-0.166-0.2-0.328-0.299-0.486s-0.2-0.312-0.299-0.462c-0.1-0.166-0.2-0.328-0.299-0.486s-0.2-0.312-0.299-0.462c-0.1-0.166-0.2-0.328-0.299-0.486s-0.2-0.32-0.299-0.486c-0.050-0.067-0.1-0.141-0.15-0.225s-0.108-0.158-0.175-0.225c-0.050-0.083-0.1-0.162-0.15-0.237s-0.108-0.146-0.175-0.212c-0.1-0.15-0.2-0.299-0.299-0.449s-0.216-0.299-0.349-0.449c-0.116-0.133-0.241-0.262-0.374-0.387s-0.258-0.254-0.374-0.387c-0.133-0.133-0.258-0.266-0.374-0.399s-0.249-0.258-0.399-0.374c-0.033-0.033-0.071-0.062-0.112-0.087s-0.079-0.046-0.112-0.062c0 0-0.008-0.004-0.025-0.012s-0.025-0.012-0.025-0.012c-0.017-0.017-0.029-0.029-0.037-0.037s-0.012-0.012-0.012-0.012c-0.017-0.017-0.037-0.029-0.062-0.037s-0.046-0.021-0.062-0.037c-0.033-0.017-0.071-0.037-0.112-0.062s-0.079-0.046-0.112-0.062c-0.050-0.017-0.096-0.033-0.137-0.050s-0.079-0.033-0.112-0.050c-0.1-0.017-0.191-0.037-0.274-0.062s-0.175-0.037-0.274-0.037c-0.083-0.017-0.175-0.033-0.274-0.050s-0.191-0.025-0.274-0.025c-0.1-0.017-0.195-0.029-0.287-0.037s-0.187-0.012-0.287-0.012c-0.083 0-0.17 0.004-0.262 0.012s-0.187 0.021-0.287 0.037c-0.050 0-0.096 0.004-0.137 0.012s-0.087 0.012-0.137 0.012c-0.033 0.017-0.075 0.033-0.125 0.050s-0.091 0.033-0.125 0.050c-0.1 0.017-0.191 0.042-0.274 0.075s-0.166 0.067-0.249 0.1c-0.183 0.067-0.362 0.133-0.536 0.2s-0.345 0.133-0.511 0.2c-0.183 0.050-0.366 0.104-0.549 0.162s-0.358 0.121-0.524 0.187c-0.183 0.050-0.366 0.104-0.549 0.162s-0.366 0.112-0.549 0.162c-0.166 0.067-0.341 0.125-0.524 0.175s-0.366 0.108-0.549 0.175c-0.183 0.050-0.366 0.096-0.549 0.137s-0.358 0.087-0.524 0.137c-0.1 0.033-0.195 0.062-0.287 0.087s-0.179 0.054-0.262 0.087c-0.033 0-0.071 0.008-0.112 0.025s-0.087 0.042-0.137 0.075c-0.033 0.017-0.067 0.037-0.1 0.062s-0.067 0.054-0.1 0.087c-0.033 0.017-0.062 0.042-0.087 0.075s-0.054 0.067-0.087 0.1c-0.017 0.017-0.033 0.033-0.050 0.050s-0.033 0.033-0.050 0.050c0 0-0.004 0.004-0.012 0.012s-0.012 0.021-0.012 0.037c-0.017 0-0.029 0-0.037 0s-0.021 0.008-0.037 0.025c-0.017 0-0.029 0.004-0.037 0.012s-0.021 0.012-0.037 0.012c0 0-0.004 0-0.012 0s-0.012 0-0.012 0c0 0-0.004 0.004-0.012 0.012s-0.012 0.012-0.012 0.012c0 0.017-0.008 0.033-0.025 0.050s-0.025 0.033-0.025 0.050c-0.017 0.050-0.037 0.096-0.062 0.137s-0.046 0.079-0.062 0.112c-0.083 0.166-0.162 0.337-0.237 0.511s-0.146 0.345-0.212 0.511c-0.033 0.067-0.062 0.129-0.087 0.187s-0.046 0.121-0.062 0.187v-4.99c0.166-0.017 0.341-0.029 0.524-0.037s0.358-0.029 0.524-0.062c0.1-0.017 0.191-0.037 0.274-0.062s0.166-0.046 0.249-0.062c0.1-0.033 0.191-0.067 0.274-0.1s0.166-0.067 0.249-0.1c0.083-0.033 0.166-0.067 0.249-0.1s0.166-0.058 0.249-0.075c0.1-0.033 0.195-0.062 0.287-0.087s0.179-0.054 0.262-0.087c0.183-0.050 0.362-0.104 0.536-0.162s0.353-0.112 0.536-0.162c0.183-0.050 0.366-0.1 0.549-0.15s0.366-0.091 0.549-0.125c0.183-0.050 0.366-0.091 0.549-0.125s0.366-0.067 0.549-0.1c0.183-0.033 0.37-0.062 0.561-0.087s0.378-0.054 0.561-0.087c0.083 0 0.175-0.004 0.274-0.012s0.191-0.012 0.274-0.012c0.1 0 0.195 0.004 0.287 0.012s0.179 0.021 0.262 0.037c0.1 0.017 0.195 0.033 0.287 0.050s0.187 0.033 0.287 0.050c0.083 0 0.175 0.004 0.274 0.012s0.191 0.021 0.274 0.037c0.2 0.017 0.391 0.033 0.574 0.050s0.366 0.033 0.549 0.050c0.1 0.017 0.195 0.029 0.287 0.037s0.179 0.021 0.262 0.037c0.050 0.017 0.1 0.029 0.15 0.037s0.091 0.012 0.125 0.012c0.017 0 0.029 0.004 0.037 0.012s0.012 0.012 0.012 0.012c0.017 0.017 0.029 0.029 0.037 0.037s0.012 0.012 0.012 0.012c0.017 0.017 0.033 0.033 0.050 0.050s0.042 0.033 0.075 0.050c0.067 0.050 0.137 0.104 0.212 0.162s0.146 0.112 0.212 0.162c0.067 0.050 0.137 0.104 0.212 0.162s0.146 0.112 0.212 0.162c0.017 0.017 0.033 0.033 0.050 0.050s0.033 0.033 0.050 0.050c0.017 0.017 0.029 0.033 0.037 0.050s0.021 0.033 0.037 0.050c0.017 0.033 0.037 0.071 0.062 0.112s0.054 0.079 0.087 0.112c0.050 0.067 0.104 0.137 0.162 0.212s0.121 0.146 0.187 0.212c0.116 0.133 0.233 0.27 0.349 0.412s0.233 0.279 0.349 0.412c0.050 0.083 0.1 0.158 0.15 0.225s0.1 0.141 0.15 0.225c0.050 0.083 0.1 0.166 0.15 0.249s0.091 0.158 0.125 0.225c0.1 0.166 0.195 0.333 0.287 0.499s0.187 0.333 0.287 0.499c0.1 0.166 0.195 0.328 0.287 0.486s0.187 0.32 0.287 0.486c0.1 0.15 0.2 0.304 0.299 0.462s0.2 0.32 0.299 0.486c0.050 0.083 0.1 0.162 0.15 0.237s0.1 0.146 0.15 0.212c0.033 0.050 0.062 0.091 0.087 0.125s0.054 0.075 0.087 0.125c0 0 0.004 0.004 0.012 0.012s0.012 0.012 0.012 0.012c0 0.017 0.004 0.029 0.012 0.037s0.021 0.012 0.037 0.012c0.017 0.017 0.033 0.029 0.050 0.037s0.033 0.021 0.050 0.037c0.15 0.116 0.291 0.233 0.424 0.349s0.266 0.233 0.399 0.349c0.017 0.017 0.033 0.033 0.050 0.050s0.025 0.033 0.025 0.050c0.017 0.017 0.029 0.025 0.037 0.025s0.012 0 0.012 0c0.017 0 0.033 0.004 0.050 0.012s0.025 0.012 0.025 0.012c0.050 0 0.096 0.008 0.137 0.025s0.087 0.033 0.137 0.050c0.083 0.017 0.166 0.042 0.249 0.075s0.175 0.067 0.274 0.1c0.083 0.033 0.166 0.071 0.249 0.112s0.166 0.079 0.249 0.112c0.050 0.017 0.096 0.033 0.137 0.050s0.079 0.033 0.112 0.050c0.017 0 0.029 0.004 0.037 0.012s0.012 0.012 0.012 0.012c0 0 0.004 0 0.012 0s0.012 0 0.012 0c0 0.033 0 0.062 0 0.087s0 0.046 0 0.062c0 0.166 0 0.333 0 0.499s0 0.333 0 0.499c0 0.017 0 0.037 0 0.062s0 0.046 0 0.062v0zM15.592 1.946c0 0 0 0 0 0h6.437v4.017c-0.033 0-0.075-0.004-0.125-0.012s-0.050-0.012 0-0.012c-0.083-0.017-0.1-0.021-0.050-0.012s0.033 0.004-0.050-0.012c-0.050 0-0.096-0.008-0.137-0.025s-0.079-0.033-0.112-0.050c-0.033 0-0.058-0.004-0.075-0.012s-0.033-0.021-0.050-0.037c-0.017-0.017-0.033-0.029-0.050-0.037s-0.033-0.021-0.050-0.037c-0.033-0.033-0.071-0.062-0.112-0.087s-0.079-0.054-0.112-0.087c-0.033-0.033-0.071-0.062-0.112-0.087s-0.079-0.046-0.112-0.062c-0.15-0.1-0.304-0.204-0.462-0.312s-0.312-0.212-0.462-0.312c-0.050-0.017-0.091-0.037-0.125-0.062s-0.075-0.054-0.125-0.087c-0.033-0.017-0.071-0.037-0.112-0.062s-0.079-0.046-0.112-0.062c-0.050-0.017-0.091-0.037-0.125-0.062s-0.067-0.054-0.1-0.087c-0.017-0.033-0.042-0.067-0.075-0.1s-0.058-0.067-0.075-0.1c-0.050-0.083-0.104-0.162-0.162-0.237s-0.112-0.146-0.162-0.212c-0.050-0.067-0.108-0.125-0.175-0.175s-0.133-0.1-0.2-0.15c-0.083-0.050-0.162-0.096-0.237-0.137s-0.154-0.087-0.237-0.137c-0.083-0.033-0.162-0.075-0.237-0.125s-0.154-0.091-0.237-0.125c-0.083-0.050-0.166-0.1-0.249-0.15s-0.158-0.091-0.225-0.125c-0.083-0.050-0.166-0.096-0.249-0.137s-0.166-0.079-0.249-0.112c-0.083-0.050-0.166-0.091-0.249-0.125s-0.166-0.067-0.249-0.1c-0.083-0.033-0.15-0.058-0.2-0.075s-0.116-0.042-0.2-0.075v0z"></path>
</svg>
