<!-- Generated by IcoMoon.io -->
<svg version="1.1" xmlns="http://www.w3.org/2000/svg" width="24" height="24" viewBox="0 0 24 24">
<title>star-filler</title>
<path d="M0.541 11.106l4.47 4.098-1.242 5.712c-0.124 0.745 0.124 1.49 0.745 1.863 0.248 0.248 0.621 0.373 0.993 0.373 0.248 0 0.497 0 0.745-0.124 0 0 0.124 0 0.124-0.124l5.091-2.856 5.091 2.856c0 0 0.124 0 0.124 0.124 0.621 0.248 1.366 0.248 1.863-0.124 0.621-0.373 0.869-1.118 0.745-1.863l-1.242-5.712c0.497-0.373 1.242-1.118 1.987-1.863l2.359-2.111 0.124-0.124c0.497-0.497 0.621-1.242 0.373-1.863s-0.745-1.118-1.49-1.242h-0.124l-5.836-0.621-2.359-5.339c0 0 0-0.124-0.124-0.124-0.124-0.869-0.745-1.242-1.366-1.242s-1.242 0.373-1.614 0.993c0 0 0 0.124-0.124 0.124l-2.359 5.339-5.836 0.621h-0.124c-0.621 0.124-1.242 0.621-1.49 1.242-0.124 0.745 0 1.49 0.497 1.987z"></path>
</svg>
