<!-- Generated by IcoMoon.io -->
<svg version="1.1" xmlns="http://www.w3.org/2000/svg" width="24" height="24" viewBox="0 0 24 24">
<title>star</title>
<path d="M17.747 23.2c-0.28 0-0.553-0.062-0.807-0.182l-0.13-0.064-5.13-2.927-5.13 2.928-0.132 0.066c-0.61 0.285-1.355 0.217-1.9-0.179-0.586-0.425-0.876-1.165-0.732-1.885l1.195-5.799-4.368-3.975-0.097-0.102c-0.468-0.495-0.636-1.212-0.425-1.864 0.216-0.655 0.774-1.139 1.449-1.26l0.127-0.022 5.872-0.651 2.431-5.384 0.075-0.137c0.327-0.591 0.954-0.963 1.635-0.963 0.678 0 1.304 0.372 1.635 0.962l0.075 0.14 2.433 5.386 5.872 0.651 0.13 0.021c0.673 0.125 1.232 0.607 1.447 1.264 0.212 0.651 0.044 1.372-0.425 1.866l-0.097 0.097-4.37 3.977 1.195 5.786c0.141 0.733-0.147 1.472-0.737 1.897-0.315 0.227-0.695 0.351-1.092 0.351zM7.568 15c-0.049 0.227-0.582 2.806-1.056 5.099l4.551-2.595c0.383-0.219 0.854-0.219 1.237 0l4.551 2.592-1.061-5.127c-0.089-0.432 0.056-0.881 0.385-1.177l3.872-3.525-5.207-0.576c-0.438-0.049-0.817-0.325-1.001-0.73l-2.159-4.773-2.156 4.773c-0.182 0.402-0.562 0.678-1.001 0.73l-5.207 0.576 3.872 3.525c0.34 0.307 0.48 0.771 0.377 1.207z"></path>
</svg>
