<!-- Generated by IcoMoon.io -->
<svg version="1.1" xmlns="http://www.w3.org/2000/svg" width="24" height="24" viewBox="0 0 24 24">
<title>sun</title>
<path d="M13.277 1.785l-1.277 3.746-1.277-3.746c-0.24-0.706 0.135-1.471 0.841-1.712 0.705-0.24 1.472 0.137 1.712 0.841 0.1 0.294 0.092 0.599 0 0.871zM1.785 10.723l3.746 1.277-3.746 1.277c-0.706 0.24-1.471-0.135-1.712-0.841-0.24-0.705 0.137-1.472 0.841-1.712 0.294-0.1 0.599-0.092 0.871 0zM10.723 22.215l1.277-3.746 1.277 3.746c0.24 0.706-0.135 1.471-0.841 1.712-0.705 0.24-1.471-0.135-1.712-0.841-0.1-0.294-0.092-0.599 0-0.871zM22.215 13.274l-3.746-1.277 3.746-1.277c0.706-0.24 1.471 0.135 1.712 0.841 0.24 0.705-0.135 1.471-0.841 1.712-0.294 0.1-0.599 0.092-0.871 0zM5.679 3.874l1.746 3.551-3.551-1.746c-0.669-0.328-0.945-1.138-0.617-1.806 0.329-0.668 1.138-0.944 1.806-0.615 0.278 0.137 0.489 0.358 0.617 0.615zM3.874 18.319l3.551-1.746-1.746 3.551c-0.328 0.668-1.138 0.944-1.806 0.615-0.668-0.329-0.944-1.138-0.615-1.806 0.137-0.278 0.358-0.488 0.615-0.615zM18.319 20.125l-1.746-3.551 3.551 1.746c0.668 0.328 0.944 1.138 0.615 1.806-0.329 0.668-1.138 0.944-1.806 0.615-0.278-0.137-0.488-0.358-0.615-0.615zM20.124 5.677l-3.552 1.747 1.747-3.552c0.328-0.668 1.138-0.944 1.806-0.615 0.668 0.329 0.944 1.138 0.614 1.807-0.135 0.277-0.356 0.486-0.614 0.614zM12 17.746c-3.168 0-5.746-2.578-5.746-5.746s2.578-5.746 5.746-5.746c3.168 0 5.746 2.578 5.746 5.746s-2.578 5.746-5.746 5.746zM12 8.808c-1.761 0-3.192 1.431-3.192 3.192s1.431 3.192 3.192 3.192c1.761 0 3.192-1.431 3.192-3.192s-1.431-3.192-3.192-3.192z"></path>
</svg>
