<!-- Generated by IcoMoon.io -->
<svg version="1.1" xmlns="http://www.w3.org/2000/svg" width="24" height="24" viewBox="0 0 24 24">
<title>support</title>
<path d="M12 0c1.625 0 3.179 0.317 4.661 0.951s2.759 1.487 3.83 2.558c1.071 1.071 1.924 2.348 2.558 3.83s0.951 3.036 0.951 4.661c0 1.625-0.317 3.179-0.951 4.661s-1.487 2.759-2.558 3.83c-1.071 1.071-2.348 1.924-3.83 2.558s-3.036 0.951-4.661 0.951c-1.625 0-3.179-0.317-4.661-0.951s-2.759-1.487-3.83-2.558c-1.071-1.071-1.924-2.348-2.558-3.83s-0.951-3.036-0.951-4.661c0-1.625 0.317-3.179 0.951-4.661s1.487-2.759 2.558-3.83c1.071-1.071 2.348-1.924 3.83-2.558s3.036-0.951 4.661-0.951zM12 1.714c-1.696 0-3.308 0.402-4.835 1.205l2.598 2.598c0.732-0.25 1.478-0.375 2.237-0.375s1.504 0.125 2.237 0.375l2.598-2.598c-1.527-0.804-3.138-1.205-4.835-1.205zM2.92 16.835l2.598-2.598c-0.25-0.732-0.375-1.478-0.375-2.237s0.125-1.504 0.375-2.237l-2.598-2.598c-0.804 1.527-1.205 3.138-1.205 4.835s0.402 3.308 1.205 4.835zM12 22.286c1.696 0 3.308-0.402 4.835-1.205l-2.598-2.598c-0.732 0.25-1.478 0.375-2.237 0.375s-1.504-0.125-2.237-0.375l-2.598 2.598c1.527 0.804 3.138 1.205 4.835 1.205zM12 17.143c1.42 0 2.632-0.502 3.636-1.507s1.507-2.217 1.507-3.636c0-1.42-0.502-2.632-1.507-3.636s-2.217-1.507-3.636-1.507c-1.42 0-2.632 0.502-3.636 1.507s-1.507 2.217-1.507 3.636c0 1.42 0.502 2.632 1.507 3.636s2.217 1.507 3.636 1.507zM18.482 14.237l2.598 2.598c0.804-1.527 1.205-3.138 1.205-4.835s-0.402-3.308-1.205-4.835l-2.598 2.598c0.25 0.732 0.375 1.478 0.375 2.237s-0.125 1.504-0.375 2.237z"></path>
</svg>
