<!-- Generated by IcoMoon.io -->
<svg version="1.1" xmlns="http://www.w3.org/2000/svg" width="24" height="24" viewBox="0 0 24 24">
<title>trash</title>
<path d="M8.857 9.5v9c0 0.146-0.047 0.266-0.141 0.359s-0.214 0.141-0.359 0.141h-1c-0.146 0-0.266-0.047-0.359-0.141s-0.141-0.214-0.141-0.359v-9c0-0.146 0.047-0.266 0.141-0.359s0.214-0.141 0.359-0.141h1c0.146 0 0.266 0.047 0.359 0.141s0.141 0.214 0.141 0.359zM12.857 9.5v9c0 0.146-0.047 0.266-0.141 0.359s-0.214 0.141-0.359 0.141h-1c-0.146 0-0.266-0.047-0.359-0.141s-0.141-0.214-0.141-0.359v-9c0-0.146 0.047-0.266 0.141-0.359s0.214-0.141 0.359-0.141h1c0.146 0 0.266 0.047 0.359 0.141s0.141 0.214 0.141 0.359zM16.857 9.5v9c0 0.146-0.047 0.266-0.141 0.359s-0.214 0.141-0.359 0.141h-1c-0.146 0-0.266-0.047-0.359-0.141s-0.141-0.214-0.141-0.359v-9c0-0.146 0.047-0.266 0.141-0.359s0.214-0.141 0.359-0.141h1c0.146 0 0.266 0.047 0.359 0.141s0.141 0.214 0.141 0.359zM18.857 20.813v-14.813h-14v14.813c0 0.229 0.036 0.44 0.109 0.633s0.148 0.333 0.227 0.422c0.078 0.089 0.133 0.133 0.164 0.133h13c0.031 0 0.086-0.044 0.164-0.133s0.154-0.229 0.227-0.422c0.073-0.193 0.109-0.404 0.109-0.633zM8.357 4h7l-0.75-1.828c-0.073-0.094-0.161-0.151-0.266-0.172h-4.953c-0.104 0.021-0.193 0.078-0.266 0.172l-0.766 1.828zM22.857 4.5v1c0 0.146-0.047 0.266-0.141 0.359s-0.214 0.141-0.359 0.141h-1.5v14.812c0 0.865-0.245 1.612-0.734 2.242s-1.078 0.945-1.766 0.945h-13c-0.687 0-1.276-0.305-1.766-0.914s-0.734-1.346-0.734-2.211v-14.875h-1.5c-0.146 0-0.266-0.047-0.359-0.141s-0.141-0.214-0.141-0.359v-1c0-0.146 0.047-0.266 0.141-0.359s0.214-0.141 0.359-0.141h4.828l1.094-2.609c0.156-0.385 0.438-0.714 0.844-0.984s0.818-0.406 1.234-0.406h5c0.417 0 0.828 0.135 1.234 0.406s0.687 0.599 0.844 0.984l1.094 2.609h4.828c0.146 0 0.266 0.047 0.359 0.141s0.141 0.214 0.141 0.359z"></path>
</svg>
