<!-- Generated by IcoMoon.io -->
<svg version="1.1" xmlns="http://www.w3.org/2000/svg" width="16" height="24" viewBox="0 0 16 24">
<title>unlocked</title>
<path d="M9.414 13.586c0.781 0.781 0.781 2.047 0 2.828-0.126 0.126-0.268 0.224-0.414 0.31v2.276c0 0.6-0.4 1-1 1s-1-0.4-1-1v-2.276c-0.147-0.086-0.288-0.184-0.414-0.31-0.781-0.781-0.781-2.047 0-2.828s2.047-0.781 2.828 0v0zM14 20c0 1.1-0.9 2-2 2h-8c-1.1 0-2-0.9-2-2v-7c0-1.1 0.9-2 2-2h8c1.1 0 2 0.9 2 2v7zM12 9h-8v-3c0-2.2 1.8-4 4-4s4 1.8 4 4c0 0.6 0.4 1 1 1s1-0.4 1-1c0-3.3-2.6-6-6-6-3.3 0-6 2.7-6 6v3.559c-1.189 0.695-2 1.972-2 3.441v7c0 2.2 1.8 4 4 4h8c2.2 0 4-1.8 4-4v-7c0-2.2-1.8-4-4-4v0z"></path>
</svg>
