<!-- Generated by IcoMoon.io -->
<svg version="1.1" xmlns="http://www.w3.org/2000/svg" width="32" height="24" viewBox="0 0 32 24">
<title>upload</title>
<path d="M12.346 15.982l1.655-1.655v8.4c0 0.762 0.509 1.273 1.273 1.273 0.762 0 1.273-0.51 1.273-1.273v-8.4l1.655 1.655c0.509 0.507 1.273 0.507 1.782 0 0.508-0.509 0.508-1.273 0-1.782l-3.674-3.674c-0.219-0.321-0.57-0.526-1.035-0.526s-0.818 0.205-1.037 0.527l-3.672 3.673c-0.509 0.509-0.509 1.273 0 1.782 0.509 0.507 1.273 0.507 1.782 0zM30.545 12.727c0 4.2-3.436 7.636-7.636 7.636h-2.545c-0.762 0-1.273-0.509-1.273-1.273 0-0.762 0.51-1.273 1.273-1.273h2.545c2.8 0 5.091-2.291 5.091-5.091s-2.291-5.091-5.091-5.091c-0.382 0-0.891 0-1.273 0.127-0.636 0.255-1.399-0.127-1.655-0.764-0.764-2.671-3.182-4.455-5.982-4.455-3.564 0-6.364 2.8-6.364 6.364 0 0.764-0.509 1.273-1.273 1.273-2.164 0-3.818 1.655-3.818 3.818s1.655 3.818 3.818 3.818h3.818c0.764 0 1.273 0.51 1.273 1.273 0 0.764-0.509 1.273-1.273 1.273h-3.818c-3.564 0-6.364-2.8-6.364-6.364 0-3.154 2.198-5.701 5.172-6.247 0.559-4.405 4.256-7.753 8.828-7.753 3.431 0 6.541 2.066 8.061 5.161 0.283-0.038 0.566-0.070 0.848-0.070 4.2 0 7.636 3.436 7.636 7.636z"></path>
</svg>
