<!-- Generated by IcoMoon.io -->
<svg version="1.1" xmlns="http://www.w3.org/2000/svg" width="30" height="24" viewBox="0 0 30 24">
<title>users</title>
<path d="M15 3c2.718 0 4.922 2.204 4.922 4.922s-2.204 4.922-4.922 4.922c-2.718 0-4.922-2.204-4.922-4.922s2.204-4.922 4.922-4.922zM20.319 13.189l-1.874-0.469c-2.305 1.658-5.098 1.288-6.889 0l-1.874 0.469c-1.502 0.376-2.556 1.726-2.556 3.274v2.849c0 0.932 0.756 1.688 1.688 1.688h12.375c0.932 0 1.688-0.756 1.688-1.688v-2.849c0-1.549-1.054-2.899-2.556-3.274zM24.75 14.063c1.812 0 3.281-1.469 3.281-3.281s-1.469-3.281-3.281-3.281c-1.812 0-3.281 1.469-3.281 3.281s1.469 3.281 3.281 3.281zM5.25 14.063c1.812 0 3.281-1.469 3.281-3.281s-1.469-3.281-3.281-3.281c-1.812 0-3.281 1.469-3.281 3.281s1.469 3.281 3.281 3.281zM6.375 19.313v-2.849c0-0.776 0.215-1.51 0.595-2.137-1.406 0.69-2.969 0.408-4.017-0.345l-1.249 0.312c-1.002 0.25-1.704 1.15-1.704 2.183v1.9c0 0.621 0.504 1.125 1.125 1.125h5.258c-0.005-0.062-0.008-0.125-0.008-0.188zM28.296 14.293l-1.249-0.312c-1.309 0.942-2.854 0.902-4.021 0.338 0.383 0.629 0.6 1.366 0.6 2.145v2.849c0 0.063-0.003 0.126-0.008 0.188h5.258c0.621 0 1.125-0.504 1.125-1.125v-1.9c0-1.032-0.703-1.932-1.704-2.183z"></path>
</svg>
