<!-- Generated by IcoMoon.io -->
<svg version="1.1" xmlns="http://www.w3.org/2000/svg" width="24" height="24" viewBox="0 0 24 24">
<title>warning</title>
<path d="M23.197 15.37l-7.218-12.031c-0.947-1.579-2.397-2.482-3.979-2.482s-3.031 0.903-3.979 2.48l-7.218 12.033c-0.96 1.598-1.065 3.303-0.287 4.676 0.776 1.375 2.293 2.163 4.158 2.163h14.651c1.866 0 3.382-0.789 4.158-2.162 0.778-1.374 0.673-3.078-0.287-4.677zM12 17.996c-1.043 0-1.892-0.849-1.892-1.891 0-1.044 0.849-1.894 1.892-1.894s1.892 0.85 1.892 1.894c0 1.043-0.85 1.891-1.892 1.891zM13.994 8.932c-0.013 0.038-1.71 4.234-1.71 4.234-0.046 0.115-0.159 0.19-0.282 0.19s-0.236-0.076-0.282-0.19l-1.698-4.197c-0.11-0.284-0.158-0.541-0.158-0.8 0-1.178 0.958-2.137 2.137-2.137s2.137 0.958 2.137 2.137c0 0.259-0.048 0.515-0.143 0.763z"></path>
</svg>
